<mxfile host="app.diagrams.net" agent="Mozilla/5.0 (Windows NT 10.0; Win64; x64) AppleWebKit/537.36 (KHTML, like Gecko) Chrome/140.0.0.0 Safari/537.36" version="28.2.4">
  <diagram name="PÃ¡gina-1" id="7kbjnH90rXWXb_VcY0Fk">
    <mxGraphModel dx="1938" dy="1634" grid="1" gridSize="10" guides="1" tooltips="1" connect="1" arrows="1" fold="1" page="1" pageScale="1" pageWidth="827" pageHeight="1169" math="0" shadow="0">
      <root>
        <mxCell id="0" />
        <mxCell id="1" parent="0" />
        <mxCell id="2" value="Clientes" style="shape=table;startSize=25;container=1;collapsible=0;childLayout=tableLayout;fixedRows=1;rowLines=1;fontStyle=1;align=center;resizeLast=1;" parent="1" vertex="1">
          <mxGeometry x="313" y="320" width="177" height="310" as="geometry" />
        </mxCell>
        <mxCell id="3" style="shape=tableRow;horizontal=0;startSize=0;swimlaneHead=0;swimlaneBody=0;fillColor=none;collapsible=0;dropTarget=0;points=[[0,0.5],[1,0.5]];portConstraint=eastwest;top=0;left=0;right=0;bottom=0;" parent="2" vertex="1">
          <mxGeometry y="25" width="177" height="47" as="geometry" />
        </mxCell>
        <mxCell id="4" value="int" style="shape=partialRectangle;connectable=0;fillColor=none;top=0;left=0;bottom=0;right=0;align=left;spacingLeft=2;overflow=hidden;fontSize=11;" parent="3" vertex="1">
          <mxGeometry width="36" height="47" as="geometry">
            <mxRectangle width="36" height="47" as="alternateBounds" />
          </mxGeometry>
        </mxCell>
        <mxCell id="5" value="cedula" style="shape=partialRectangle;connectable=0;fillColor=none;top=0;left=0;bottom=0;right=0;align=left;spacingLeft=2;overflow=hidden;fontSize=11;" parent="3" vertex="1">
          <mxGeometry x="36" width="119" height="47" as="geometry">
            <mxRectangle width="119" height="47" as="alternateBounds" />
          </mxGeometry>
        </mxCell>
        <mxCell id="6" value="PK" style="shape=partialRectangle;connectable=0;fillColor=none;top=0;left=0;bottom=0;right=0;align=left;spacingLeft=2;overflow=hidden;fontSize=11;" parent="3" vertex="1">
          <mxGeometry x="155" width="22" height="47" as="geometry">
            <mxRectangle width="22" height="47" as="alternateBounds" />
          </mxGeometry>
        </mxCell>
        <mxCell id="7" style="shape=tableRow;horizontal=0;startSize=0;swimlaneHead=0;swimlaneBody=0;fillColor=none;collapsible=0;dropTarget=0;points=[[0,0.5],[1,0.5]];portConstraint=eastwest;top=0;left=0;right=0;bottom=0;" parent="2" vertex="1">
          <mxGeometry y="72" width="177" height="47" as="geometry" />
        </mxCell>
        <mxCell id="8" value="string" style="shape=partialRectangle;connectable=0;fillColor=none;top=0;left=0;bottom=0;right=0;align=left;spacingLeft=2;overflow=hidden;fontSize=11;" parent="7" vertex="1">
          <mxGeometry width="36" height="47" as="geometry">
            <mxRectangle width="36" height="47" as="alternateBounds" />
          </mxGeometry>
        </mxCell>
        <mxCell id="9" value="nombre" style="shape=partialRectangle;connectable=0;fillColor=none;top=0;left=0;bottom=0;right=0;align=left;spacingLeft=2;overflow=hidden;fontSize=11;" parent="7" vertex="1">
          <mxGeometry x="36" width="119" height="47" as="geometry">
            <mxRectangle width="119" height="47" as="alternateBounds" />
          </mxGeometry>
        </mxCell>
        <mxCell id="10" value="" style="shape=partialRectangle;connectable=0;fillColor=none;top=0;left=0;bottom=0;right=0;align=left;spacingLeft=2;overflow=hidden;fontSize=11;" parent="7" vertex="1">
          <mxGeometry x="155" width="22" height="47" as="geometry">
            <mxRectangle width="22" height="47" as="alternateBounds" />
          </mxGeometry>
        </mxCell>
        <mxCell id="11" style="shape=tableRow;horizontal=0;startSize=0;swimlaneHead=0;swimlaneBody=0;fillColor=none;collapsible=0;dropTarget=0;points=[[0,0.5],[1,0.5]];portConstraint=eastwest;top=0;left=0;right=0;bottom=0;" parent="2" vertex="1">
          <mxGeometry y="119" width="177" height="47" as="geometry" />
        </mxCell>
        <mxCell id="12" value="string" style="shape=partialRectangle;connectable=0;fillColor=none;top=0;left=0;bottom=0;right=0;align=left;spacingLeft=2;overflow=hidden;fontSize=11;" parent="11" vertex="1">
          <mxGeometry width="36" height="47" as="geometry">
            <mxRectangle width="36" height="47" as="alternateBounds" />
          </mxGeometry>
        </mxCell>
        <mxCell id="13" value="Ciudad" style="shape=partialRectangle;connectable=0;fillColor=none;top=0;left=0;bottom=0;right=0;align=left;spacingLeft=2;overflow=hidden;fontSize=11;" parent="11" vertex="1">
          <mxGeometry x="36" width="119" height="47" as="geometry">
            <mxRectangle width="119" height="47" as="alternateBounds" />
          </mxGeometry>
        </mxCell>
        <mxCell id="14" value="" style="shape=partialRectangle;connectable=0;fillColor=none;top=0;left=0;bottom=0;right=0;align=left;spacingLeft=2;overflow=hidden;fontSize=11;" parent="11" vertex="1">
          <mxGeometry x="155" width="22" height="47" as="geometry">
            <mxRectangle width="22" height="47" as="alternateBounds" />
          </mxGeometry>
        </mxCell>
        <mxCell id="15" style="shape=tableRow;horizontal=0;startSize=0;swimlaneHead=0;swimlaneBody=0;fillColor=none;collapsible=0;dropTarget=0;points=[[0,0.5],[1,0.5]];portConstraint=eastwest;top=0;left=0;right=0;bottom=0;" parent="2" vertex="1">
          <mxGeometry y="166" width="177" height="47" as="geometry" />
        </mxCell>
        <mxCell id="16" value="string" style="shape=partialRectangle;connectable=0;fillColor=none;top=0;left=0;bottom=0;right=0;align=left;spacingLeft=2;overflow=hidden;fontSize=11;" parent="15" vertex="1">
          <mxGeometry width="36" height="47" as="geometry">
            <mxRectangle width="36" height="47" as="alternateBounds" />
          </mxGeometry>
        </mxCell>
        <mxCell id="17" value="Telefono" style="shape=partialRectangle;connectable=0;fillColor=none;top=0;left=0;bottom=0;right=0;align=left;spacingLeft=2;overflow=hidden;fontSize=11;" parent="15" vertex="1">
          <mxGeometry x="36" width="119" height="47" as="geometry">
            <mxRectangle width="119" height="47" as="alternateBounds" />
          </mxGeometry>
        </mxCell>
        <mxCell id="18" value="" style="shape=partialRectangle;connectable=0;fillColor=none;top=0;left=0;bottom=0;right=0;align=left;spacingLeft=2;overflow=hidden;fontSize=11;" parent="15" vertex="1">
          <mxGeometry x="155" width="22" height="47" as="geometry">
            <mxRectangle width="22" height="47" as="alternateBounds" />
          </mxGeometry>
        </mxCell>
        <mxCell id="Yz3n3Q3l3AvT9BNRFwYG-82" style="shape=tableRow;horizontal=0;startSize=0;swimlaneHead=0;swimlaneBody=0;fillColor=none;collapsible=0;dropTarget=0;points=[[0,0.5],[1,0.5]];portConstraint=eastwest;top=0;left=0;right=0;bottom=0;" parent="2" vertex="1">
          <mxGeometry y="213" width="177" height="47" as="geometry" />
        </mxCell>
        <mxCell id="Yz3n3Q3l3AvT9BNRFwYG-83" value="string" style="shape=partialRectangle;connectable=0;fillColor=none;top=0;left=0;bottom=0;right=0;align=left;spacingLeft=2;overflow=hidden;fontSize=11;" parent="Yz3n3Q3l3AvT9BNRFwYG-82" vertex="1">
          <mxGeometry width="36" height="47" as="geometry">
            <mxRectangle width="36" height="47" as="alternateBounds" />
          </mxGeometry>
        </mxCell>
        <mxCell id="Yz3n3Q3l3AvT9BNRFwYG-84" value="Direccion" style="shape=partialRectangle;connectable=0;fillColor=none;top=0;left=0;bottom=0;right=0;align=left;spacingLeft=2;overflow=hidden;fontSize=11;" parent="Yz3n3Q3l3AvT9BNRFwYG-82" vertex="1">
          <mxGeometry x="36" width="119" height="47" as="geometry">
            <mxRectangle width="119" height="47" as="alternateBounds" />
          </mxGeometry>
        </mxCell>
        <mxCell id="Yz3n3Q3l3AvT9BNRFwYG-85" value="" style="shape=partialRectangle;connectable=0;fillColor=none;top=0;left=0;bottom=0;right=0;align=left;spacingLeft=2;overflow=hidden;fontSize=11;" parent="Yz3n3Q3l3AvT9BNRFwYG-82" vertex="1">
          <mxGeometry x="155" width="22" height="47" as="geometry">
            <mxRectangle width="22" height="47" as="alternateBounds" />
          </mxGeometry>
        </mxCell>
        <mxCell id="Yz3n3Q3l3AvT9BNRFwYG-107" style="shape=tableRow;horizontal=0;startSize=0;swimlaneHead=0;swimlaneBody=0;fillColor=none;collapsible=0;dropTarget=0;points=[[0,0.5],[1,0.5]];portConstraint=eastwest;top=0;left=0;right=0;bottom=0;" parent="2" vertex="1">
          <mxGeometry y="260" width="177" height="47" as="geometry" />
        </mxCell>
        <mxCell id="Yz3n3Q3l3AvT9BNRFwYG-108" value="string" style="shape=partialRectangle;connectable=0;fillColor=none;top=0;left=0;bottom=0;right=0;align=left;spacingLeft=2;overflow=hidden;fontSize=11;" parent="Yz3n3Q3l3AvT9BNRFwYG-107" vertex="1">
          <mxGeometry width="36" height="47" as="geometry">
            <mxRectangle width="36" height="47" as="alternateBounds" />
          </mxGeometry>
        </mxCell>
        <mxCell id="Yz3n3Q3l3AvT9BNRFwYG-109" value="Observacion" style="shape=partialRectangle;connectable=0;fillColor=none;top=0;left=0;bottom=0;right=0;align=left;spacingLeft=2;overflow=hidden;fontSize=11;" parent="Yz3n3Q3l3AvT9BNRFwYG-107" vertex="1">
          <mxGeometry x="36" width="119" height="47" as="geometry">
            <mxRectangle width="119" height="47" as="alternateBounds" />
          </mxGeometry>
        </mxCell>
        <mxCell id="Yz3n3Q3l3AvT9BNRFwYG-110" value="" style="shape=partialRectangle;connectable=0;fillColor=none;top=0;left=0;bottom=0;right=0;align=left;spacingLeft=2;overflow=hidden;fontSize=11;" parent="Yz3n3Q3l3AvT9BNRFwYG-107" vertex="1">
          <mxGeometry x="155" width="22" height="47" as="geometry">
            <mxRectangle width="22" height="47" as="alternateBounds" />
          </mxGeometry>
        </mxCell>
        <mxCell id="19" value="VentasRopa" style="shape=table;startSize=25;container=1;collapsible=0;childLayout=tableLayout;fixedRows=1;rowLines=1;fontStyle=1;align=center;resizeLast=1;" parent="1" vertex="1">
          <mxGeometry x="-2" y="480" width="247" height="271.9999999999999" as="geometry" />
        </mxCell>
        <mxCell id="20" style="shape=tableRow;horizontal=0;startSize=0;swimlaneHead=0;swimlaneBody=0;fillColor=none;collapsible=0;dropTarget=0;points=[[0,0.5],[1,0.5]];portConstraint=eastwest;top=0;left=0;right=0;bottom=0;" parent="19" vertex="1">
          <mxGeometry y="25" width="247" height="47" as="geometry" />
        </mxCell>
        <mxCell id="21" value="int" style="shape=partialRectangle;connectable=0;fillColor=none;top=0;left=0;bottom=0;right=0;align=left;spacingLeft=2;overflow=hidden;fontSize=11;" parent="20" vertex="1">
          <mxGeometry width="47" height="47" as="geometry">
            <mxRectangle width="47" height="47" as="alternateBounds" />
          </mxGeometry>
        </mxCell>
        <mxCell id="22" value="id" style="shape=partialRectangle;connectable=0;fillColor=none;top=0;left=0;bottom=0;right=0;align=left;spacingLeft=2;overflow=hidden;fontSize=11;" parent="20" vertex="1">
          <mxGeometry x="47" width="178" height="47" as="geometry">
            <mxRectangle width="178" height="47" as="alternateBounds" />
          </mxGeometry>
        </mxCell>
        <mxCell id="23" value="PK" style="shape=partialRectangle;connectable=0;fillColor=none;top=0;left=0;bottom=0;right=0;align=left;spacingLeft=2;overflow=hidden;fontSize=11;" parent="20" vertex="1">
          <mxGeometry x="225" width="22" height="47" as="geometry">
            <mxRectangle width="22" height="47" as="alternateBounds" />
          </mxGeometry>
        </mxCell>
        <mxCell id="24" style="shape=tableRow;horizontal=0;startSize=0;swimlaneHead=0;swimlaneBody=0;fillColor=none;collapsible=0;dropTarget=0;points=[[0,0.5],[1,0.5]];portConstraint=eastwest;top=0;left=0;right=0;bottom=0;" parent="19" vertex="1">
          <mxGeometry y="72" width="247" height="47" as="geometry" />
        </mxCell>
        <mxCell id="25" value="date" style="shape=partialRectangle;connectable=0;fillColor=none;top=0;left=0;bottom=0;right=0;align=left;spacingLeft=2;overflow=hidden;fontSize=11;" parent="24" vertex="1">
          <mxGeometry width="47" height="47" as="geometry">
            <mxRectangle width="47" height="47" as="alternateBounds" />
          </mxGeometry>
        </mxCell>
        <mxCell id="26" value="Fecha" style="shape=partialRectangle;connectable=0;fillColor=none;top=0;left=0;bottom=0;right=0;align=left;spacingLeft=2;overflow=hidden;fontSize=11;" parent="24" vertex="1">
          <mxGeometry x="47" width="178" height="47" as="geometry">
            <mxRectangle width="178" height="47" as="alternateBounds" />
          </mxGeometry>
        </mxCell>
        <mxCell id="27" value="" style="shape=partialRectangle;connectable=0;fillColor=none;top=0;left=0;bottom=0;right=0;align=left;spacingLeft=2;overflow=hidden;fontSize=11;" parent="24" vertex="1">
          <mxGeometry x="225" width="22" height="47" as="geometry">
            <mxRectangle width="22" height="47" as="alternateBounds" />
          </mxGeometry>
        </mxCell>
        <mxCell id="28" style="shape=tableRow;horizontal=0;startSize=0;swimlaneHead=0;swimlaneBody=0;fillColor=none;collapsible=0;dropTarget=0;points=[[0,0.5],[1,0.5]];portConstraint=eastwest;top=0;left=0;right=0;bottom=0;" parent="19" vertex="1">
          <mxGeometry y="119" width="247" height="51" as="geometry" />
        </mxCell>
        <mxCell id="29" value="int" style="shape=partialRectangle;connectable=0;fillColor=none;top=0;left=0;bottom=0;right=0;align=left;spacingLeft=2;overflow=hidden;fontSize=11;" parent="28" vertex="1">
          <mxGeometry width="47" height="51" as="geometry">
            <mxRectangle width="47" height="51" as="alternateBounds" />
          </mxGeometry>
        </mxCell>
        <mxCell id="30" value="idCliente&#xa;aqui se pone el nombre yÂ &#xa;ciudad del cliente)" style="shape=partialRectangle;connectable=0;fillColor=none;top=0;left=0;bottom=0;right=0;align=left;spacingLeft=2;overflow=hidden;fontSize=11;" parent="28" vertex="1">
          <mxGeometry x="47" width="178" height="51" as="geometry">
            <mxRectangle width="178" height="51" as="alternateBounds" />
          </mxGeometry>
        </mxCell>
        <mxCell id="31" value="FK" style="shape=partialRectangle;connectable=0;fillColor=none;top=0;left=0;bottom=0;right=0;align=left;spacingLeft=2;overflow=hidden;fontSize=11;" parent="28" vertex="1">
          <mxGeometry x="225" width="22" height="51" as="geometry">
            <mxRectangle width="22" height="51" as="alternateBounds" />
          </mxGeometry>
        </mxCell>
        <mxCell id="32" style="shape=tableRow;horizontal=0;startSize=0;swimlaneHead=0;swimlaneBody=0;fillColor=none;collapsible=0;dropTarget=0;points=[[0,0.5],[1,0.5]];portConstraint=eastwest;top=0;left=0;right=0;bottom=0;" parent="19" vertex="1">
          <mxGeometry y="170" width="247" height="54" as="geometry" />
        </mxCell>
        <mxCell id="33" value="int" style="shape=partialRectangle;connectable=0;fillColor=none;top=0;left=0;bottom=0;right=0;align=left;spacingLeft=2;overflow=hidden;fontSize=11;" parent="32" vertex="1">
          <mxGeometry width="47" height="54" as="geometry">
            <mxRectangle width="47" height="54" as="alternateBounds" />
          </mxGeometry>
        </mxCell>
        <mxCell id="34" value="idRopa&#xa;aqui se pone el nombre delÂ &#xa;Articulo)" style="shape=partialRectangle;connectable=0;fillColor=none;top=0;left=0;bottom=0;right=0;align=left;spacingLeft=2;overflow=hidden;fontSize=11;" parent="32" vertex="1">
          <mxGeometry x="47" width="178" height="54" as="geometry">
            <mxRectangle width="178" height="54" as="alternateBounds" />
          </mxGeometry>
        </mxCell>
        <mxCell id="35" value="" style="shape=partialRectangle;connectable=0;fillColor=none;top=0;left=0;bottom=0;right=0;align=left;spacingLeft=2;overflow=hidden;fontSize=11;" parent="32" vertex="1">
          <mxGeometry x="225" width="22" height="54" as="geometry">
            <mxRectangle width="22" height="54" as="alternateBounds" />
          </mxGeometry>
        </mxCell>
        <mxCell id="Yz3n3Q3l3AvT9BNRFwYG-157" style="shape=tableRow;horizontal=0;startSize=0;swimlaneHead=0;swimlaneBody=0;fillColor=none;collapsible=0;dropTarget=0;points=[[0,0.5],[1,0.5]];portConstraint=eastwest;top=0;left=0;right=0;bottom=0;" parent="19" vertex="1">
          <mxGeometry y="224" width="247" height="47" as="geometry" />
        </mxCell>
        <mxCell id="Yz3n3Q3l3AvT9BNRFwYG-158" value="int" style="shape=partialRectangle;connectable=0;fillColor=none;top=0;left=0;bottom=0;right=0;align=left;spacingLeft=2;overflow=hidden;fontSize=11;" parent="Yz3n3Q3l3AvT9BNRFwYG-157" vertex="1">
          <mxGeometry width="47" height="47" as="geometry">
            <mxRectangle width="47" height="47" as="alternateBounds" />
          </mxGeometry>
        </mxCell>
        <mxCell id="Yz3n3Q3l3AvT9BNRFwYG-159" value="Cantidad" style="shape=partialRectangle;connectable=0;fillColor=none;top=0;left=0;bottom=0;right=0;align=left;spacingLeft=2;overflow=hidden;fontSize=11;" parent="Yz3n3Q3l3AvT9BNRFwYG-157" vertex="1">
          <mxGeometry x="47" width="178" height="47" as="geometry">
            <mxRectangle width="178" height="47" as="alternateBounds" />
          </mxGeometry>
        </mxCell>
        <mxCell id="Yz3n3Q3l3AvT9BNRFwYG-160" value="" style="shape=partialRectangle;connectable=0;fillColor=none;top=0;left=0;bottom=0;right=0;align=left;spacingLeft=2;overflow=hidden;fontSize=11;" parent="Yz3n3Q3l3AvT9BNRFwYG-157" vertex="1">
          <mxGeometry x="225" width="22" height="47" as="geometry">
            <mxRectangle width="22" height="47" as="alternateBounds" />
          </mxGeometry>
        </mxCell>
        <mxCell id="36" value="Ropa" style="shape=table;startSize=25;container=1;collapsible=0;childLayout=tableLayout;fixedRows=1;rowLines=1;fontStyle=1;align=center;resizeLast=1;" parent="1" vertex="1">
          <mxGeometry x="30" y="104" width="230.0000000000001" height="186" as="geometry" />
        </mxCell>
        <mxCell id="37" style="shape=tableRow;horizontal=0;startSize=0;swimlaneHead=0;swimlaneBody=0;fillColor=none;collapsible=0;dropTarget=0;points=[[0,0.5],[1,0.5]];portConstraint=eastwest;top=0;left=0;right=0;bottom=0;" parent="36" vertex="1">
          <mxGeometry y="25" width="230.0000000000001" height="47" as="geometry" />
        </mxCell>
        <mxCell id="38" value="int" style="shape=partialRectangle;connectable=0;fillColor=none;top=0;left=0;bottom=0;right=0;align=left;spacingLeft=2;overflow=hidden;fontSize=11;" parent="37" vertex="1">
          <mxGeometry width="42" height="47" as="geometry">
            <mxRectangle width="42" height="47" as="alternateBounds" />
          </mxGeometry>
        </mxCell>
        <mxCell id="39" value="id" style="shape=partialRectangle;connectable=0;fillColor=none;top=0;left=0;bottom=0;right=0;align=left;spacingLeft=2;overflow=hidden;fontSize=11;" parent="37" vertex="1">
          <mxGeometry x="42" width="158" height="47" as="geometry">
            <mxRectangle width="158" height="47" as="alternateBounds" />
          </mxGeometry>
        </mxCell>
        <mxCell id="40" value="PK" style="shape=partialRectangle;connectable=0;fillColor=none;top=0;left=0;bottom=0;right=0;align=left;spacingLeft=2;overflow=hidden;fontSize=11;" parent="37" vertex="1">
          <mxGeometry x="200" width="30.000000000000114" height="47" as="geometry">
            <mxRectangle width="30.000000000000114" height="47" as="alternateBounds" />
          </mxGeometry>
        </mxCell>
        <mxCell id="41" style="shape=tableRow;horizontal=0;startSize=0;swimlaneHead=0;swimlaneBody=0;fillColor=none;collapsible=0;dropTarget=0;points=[[0,0.5],[1,0.5]];portConstraint=eastwest;top=0;left=0;right=0;bottom=0;" parent="36" vertex="1">
          <mxGeometry y="72" width="230.0000000000001" height="20" as="geometry" />
        </mxCell>
        <mxCell id="42" value="string" style="shape=partialRectangle;connectable=0;fillColor=none;top=0;left=0;bottom=0;right=0;align=left;spacingLeft=2;overflow=hidden;fontSize=11;" parent="41" vertex="1">
          <mxGeometry width="42" height="20" as="geometry">
            <mxRectangle width="42" height="20" as="alternateBounds" />
          </mxGeometry>
        </mxCell>
        <mxCell id="43" value="nombre" style="shape=partialRectangle;connectable=0;fillColor=none;top=0;left=0;bottom=0;right=0;align=left;spacingLeft=2;overflow=hidden;fontSize=11;" parent="41" vertex="1">
          <mxGeometry x="42" width="158" height="20" as="geometry">
            <mxRectangle width="158" height="20" as="alternateBounds" />
          </mxGeometry>
        </mxCell>
        <mxCell id="44" value="" style="shape=partialRectangle;connectable=0;fillColor=none;top=0;left=0;bottom=0;right=0;align=left;spacingLeft=2;overflow=hidden;fontSize=11;" parent="41" vertex="1">
          <mxGeometry x="200" width="30.000000000000114" height="20" as="geometry">
            <mxRectangle width="30.000000000000114" height="20" as="alternateBounds" />
          </mxGeometry>
        </mxCell>
        <mxCell id="45" style="shape=tableRow;horizontal=0;startSize=0;swimlaneHead=0;swimlaneBody=0;fillColor=none;collapsible=0;dropTarget=0;points=[[0,0.5],[1,0.5]];portConstraint=eastwest;top=0;left=0;right=0;bottom=0;" parent="36" vertex="1">
          <mxGeometry y="92" width="230.0000000000001" height="47" as="geometry" />
        </mxCell>
        <mxCell id="46" value="decimal" style="shape=partialRectangle;connectable=0;fillColor=none;top=0;left=0;bottom=0;right=0;align=left;spacingLeft=2;overflow=hidden;fontSize=11;" parent="45" vertex="1">
          <mxGeometry width="42" height="47" as="geometry">
            <mxRectangle width="42" height="47" as="alternateBounds" />
          </mxGeometry>
        </mxCell>
        <mxCell id="47" value="precio" style="shape=partialRectangle;connectable=0;fillColor=none;top=0;left=0;bottom=0;right=0;align=left;spacingLeft=2;overflow=hidden;fontSize=11;" parent="45" vertex="1">
          <mxGeometry x="42" width="158" height="47" as="geometry">
            <mxRectangle width="158" height="47" as="alternateBounds" />
          </mxGeometry>
        </mxCell>
        <mxCell id="48" value="" style="shape=partialRectangle;connectable=0;fillColor=none;top=0;left=0;bottom=0;right=0;align=left;spacingLeft=2;overflow=hidden;fontSize=11;" parent="45" vertex="1">
          <mxGeometry x="200" width="30.000000000000114" height="47" as="geometry">
            <mxRectangle width="30.000000000000114" height="47" as="alternateBounds" />
          </mxGeometry>
        </mxCell>
        <mxCell id="Yz3n3Q3l3AvT9BNRFwYG-199" style="shape=tableRow;horizontal=0;startSize=0;swimlaneHead=0;swimlaneBody=0;fillColor=none;collapsible=0;dropTarget=0;points=[[0,0.5],[1,0.5]];portConstraint=eastwest;top=0;left=0;right=0;bottom=0;" parent="36" vertex="1">
          <mxGeometry y="139" width="230.0000000000001" height="47" as="geometry" />
        </mxCell>
        <mxCell id="Yz3n3Q3l3AvT9BNRFwYG-200" value="int" style="shape=partialRectangle;connectable=0;fillColor=none;top=0;left=0;bottom=0;right=0;align=left;spacingLeft=2;overflow=hidden;fontSize=11;" parent="Yz3n3Q3l3AvT9BNRFwYG-199" vertex="1">
          <mxGeometry width="42" height="47" as="geometry">
            <mxRectangle width="42" height="47" as="alternateBounds" />
          </mxGeometry>
        </mxCell>
        <mxCell id="Yz3n3Q3l3AvT9BNRFwYG-201" value="idCategoriaRopa" style="shape=partialRectangle;connectable=0;fillColor=none;top=0;left=0;bottom=0;right=0;align=left;spacingLeft=2;overflow=hidden;fontSize=11;" parent="Yz3n3Q3l3AvT9BNRFwYG-199" vertex="1">
          <mxGeometry x="42" width="158" height="47" as="geometry">
            <mxRectangle width="158" height="47" as="alternateBounds" />
          </mxGeometry>
        </mxCell>
        <mxCell id="Yz3n3Q3l3AvT9BNRFwYG-202" value="" style="shape=partialRectangle;connectable=0;fillColor=none;top=0;left=0;bottom=0;right=0;align=left;spacingLeft=2;overflow=hidden;fontSize=11;" parent="Yz3n3Q3l3AvT9BNRFwYG-199" vertex="1">
          <mxGeometry x="200" width="30.000000000000114" height="47" as="geometry">
            <mxRectangle width="30.000000000000114" height="47" as="alternateBounds" />
          </mxGeometry>
        </mxCell>
        <mxCell id="53" value="FacturaRopa" style="shape=table;startSize=20;container=1;collapsible=0;childLayout=tableLayout;fixedRows=1;rowLines=1;fontStyle=1;align=center;resizeLast=1;" parent="1" vertex="1">
          <mxGeometry x="45" y="780" width="229.9999999999999" height="243" as="geometry" />
        </mxCell>
        <mxCell id="54" style="shape=tableRow;horizontal=0;startSize=0;swimlaneHead=0;swimlaneBody=0;fillColor=none;collapsible=0;dropTarget=0;points=[[0,0.5],[1,0.5]];portConstraint=eastwest;top=0;left=0;right=0;bottom=0;" parent="53" vertex="1">
          <mxGeometry y="20" width="229.9999999999999" height="20" as="geometry" />
        </mxCell>
        <mxCell id="55" value="int" style="shape=partialRectangle;connectable=0;fillColor=none;top=0;left=0;bottom=0;right=0;align=left;spacingLeft=2;overflow=hidden;fontSize=11;" parent="54" vertex="1">
          <mxGeometry width="51.5" height="20" as="geometry">
            <mxRectangle width="51.5" height="20" as="alternateBounds" />
          </mxGeometry>
        </mxCell>
        <mxCell id="56" value="funda" style="shape=partialRectangle;connectable=0;fillColor=none;top=0;left=0;bottom=0;right=0;align=left;spacingLeft=2;overflow=hidden;fontSize=11;" parent="54" vertex="1">
          <mxGeometry x="51.5" width="158.4999999999999" height="20" as="geometry">
            <mxRectangle width="158.4999999999999" height="20" as="alternateBounds" />
          </mxGeometry>
        </mxCell>
        <mxCell id="57" value="FK" style="shape=partialRectangle;connectable=0;fillColor=none;top=0;left=0;bottom=0;right=0;align=left;spacingLeft=2;overflow=hidden;fontSize=11;" parent="54" vertex="1">
          <mxGeometry x="209.9999999999999" width="20" height="20" as="geometry">
            <mxRectangle width="20" height="20" as="alternateBounds" />
          </mxGeometry>
        </mxCell>
        <mxCell id="58" style="shape=tableRow;horizontal=0;startSize=0;swimlaneHead=0;swimlaneBody=0;fillColor=none;collapsible=0;dropTarget=0;points=[[0,0.5],[1,0.5]];portConstraint=eastwest;top=0;left=0;right=0;bottom=0;" parent="53" vertex="1">
          <mxGeometry y="40" width="229.9999999999999" height="95" as="geometry" />
        </mxCell>
        <mxCell id="59" value="id" style="shape=partialRectangle;connectable=0;fillColor=none;top=0;left=0;bottom=0;right=0;align=left;spacingLeft=2;overflow=hidden;fontSize=11;" parent="58" vertex="1">
          <mxGeometry width="51.5" height="95" as="geometry">
            <mxRectangle width="51.5" height="95" as="alternateBounds" />
          </mxGeometry>
        </mxCell>
        <mxCell id="60" value="idVentasRopaÂ &#xa;(Se coloca&#xa;-Cliente: nombre, ciudad&#xa;-Ropa: nombre, precio&#xa;-VentasRopa: cantidad, fecha)" style="shape=partialRectangle;connectable=0;fillColor=none;top=0;left=0;bottom=0;right=0;align=left;spacingLeft=2;overflow=hidden;fontSize=11;" parent="58" vertex="1">
          <mxGeometry x="51.5" width="158.4999999999999" height="95" as="geometry">
            <mxRectangle width="158.4999999999999" height="95" as="alternateBounds" />
          </mxGeometry>
        </mxCell>
        <mxCell id="61" value="FK" style="shape=partialRectangle;connectable=0;fillColor=none;top=0;left=0;bottom=0;right=0;align=left;spacingLeft=2;overflow=hidden;fontSize=11;" parent="58" vertex="1">
          <mxGeometry x="209.9999999999999" width="20" height="95" as="geometry">
            <mxRectangle width="20" height="95" as="alternateBounds" />
          </mxGeometry>
        </mxCell>
        <mxCell id="62" style="shape=tableRow;horizontal=0;startSize=0;swimlaneHead=0;swimlaneBody=0;fillColor=none;collapsible=0;dropTarget=0;points=[[0,0.5],[1,0.5]];portConstraint=eastwest;top=0;left=0;right=0;bottom=0;" parent="53" vertex="1">
          <mxGeometry y="135" width="229.9999999999999" height="49" as="geometry" />
        </mxCell>
        <mxCell id="63" value="decimal" style="shape=partialRectangle;connectable=0;fillColor=none;top=0;left=0;bottom=0;right=0;align=left;spacingLeft=2;overflow=hidden;fontSize=11;" parent="62" vertex="1">
          <mxGeometry width="51.5" height="49" as="geometry">
            <mxRectangle width="51.5" height="49" as="alternateBounds" />
          </mxGeometry>
        </mxCell>
        <mxCell id="64" value="subtotal" style="shape=partialRectangle;connectable=0;fillColor=none;top=0;left=0;bottom=0;right=0;align=left;spacingLeft=2;overflow=hidden;fontSize=11;" parent="62" vertex="1">
          <mxGeometry x="51.5" width="158.4999999999999" height="49" as="geometry">
            <mxRectangle width="158.4999999999999" height="49" as="alternateBounds" />
          </mxGeometry>
        </mxCell>
        <mxCell id="65" value="" style="shape=partialRectangle;connectable=0;fillColor=none;top=0;left=0;bottom=0;right=0;align=left;spacingLeft=2;overflow=hidden;fontSize=11;" parent="62" vertex="1">
          <mxGeometry x="209.9999999999999" width="20" height="49" as="geometry">
            <mxRectangle width="20" height="49" as="alternateBounds" />
          </mxGeometry>
        </mxCell>
        <mxCell id="Yz3n3Q3l3AvT9BNRFwYG-220" style="shape=tableRow;horizontal=0;startSize=0;swimlaneHead=0;swimlaneBody=0;fillColor=none;collapsible=0;dropTarget=0;points=[[0,0.5],[1,0.5]];portConstraint=eastwest;top=0;left=0;right=0;bottom=0;" parent="53" vertex="1">
          <mxGeometry y="184" width="229.9999999999999" height="49" as="geometry" />
        </mxCell>
        <mxCell id="Yz3n3Q3l3AvT9BNRFwYG-221" value="decimal" style="shape=partialRectangle;connectable=0;fillColor=none;top=0;left=0;bottom=0;right=0;align=left;spacingLeft=2;overflow=hidden;fontSize=11;" parent="Yz3n3Q3l3AvT9BNRFwYG-220" vertex="1">
          <mxGeometry width="51.5" height="49" as="geometry">
            <mxRectangle width="51.5" height="49" as="alternateBounds" />
          </mxGeometry>
        </mxCell>
        <mxCell id="Yz3n3Q3l3AvT9BNRFwYG-222" value="Total" style="shape=partialRectangle;connectable=0;fillColor=none;top=0;left=0;bottom=0;right=0;align=left;spacingLeft=2;overflow=hidden;fontSize=11;" parent="Yz3n3Q3l3AvT9BNRFwYG-220" vertex="1">
          <mxGeometry x="51.5" width="158.4999999999999" height="49" as="geometry">
            <mxRectangle width="158.4999999999999" height="49" as="alternateBounds" />
          </mxGeometry>
        </mxCell>
        <mxCell id="Yz3n3Q3l3AvT9BNRFwYG-223" value="" style="shape=partialRectangle;connectable=0;fillColor=none;top=0;left=0;bottom=0;right=0;align=left;spacingLeft=2;overflow=hidden;fontSize=11;" parent="Yz3n3Q3l3AvT9BNRFwYG-220" vertex="1">
          <mxGeometry x="209.9999999999999" width="20" height="49" as="geometry">
            <mxRectangle width="20" height="49" as="alternateBounds" />
          </mxGeometry>
        </mxCell>
        <mxCell id="Yz3n3Q3l3AvT9BNRFwYG-68" value="TipoCliente" style="shape=table;startSize=25;container=1;collapsible=0;childLayout=tableLayout;fixedRows=1;rowLines=1;fontStyle=1;align=center;resizeLast=1;" parent="1" vertex="1">
          <mxGeometry x="45" y="-130" width="200" height="94" as="geometry" />
        </mxCell>
        <mxCell id="Yz3n3Q3l3AvT9BNRFwYG-69" style="shape=tableRow;horizontal=0;startSize=0;swimlaneHead=0;swimlaneBody=0;fillColor=none;collapsible=0;dropTarget=0;points=[[0,0.5],[1,0.5]];portConstraint=eastwest;top=0;left=0;right=0;bottom=0;" parent="Yz3n3Q3l3AvT9BNRFwYG-68" vertex="1">
          <mxGeometry y="25" width="200" height="20" as="geometry" />
        </mxCell>
        <mxCell id="Yz3n3Q3l3AvT9BNRFwYG-70" value="int" style="shape=partialRectangle;connectable=0;fillColor=none;top=0;left=0;bottom=0;right=0;align=left;spacingLeft=2;overflow=hidden;fontSize=11;" parent="Yz3n3Q3l3AvT9BNRFwYG-69" vertex="1">
          <mxGeometry width="60" height="20" as="geometry">
            <mxRectangle width="60" height="20" as="alternateBounds" />
          </mxGeometry>
        </mxCell>
        <mxCell id="Yz3n3Q3l3AvT9BNRFwYG-71" value="id" style="shape=partialRectangle;connectable=0;fillColor=none;top=0;left=0;bottom=0;right=0;align=left;spacingLeft=2;overflow=hidden;fontSize=11;" parent="Yz3n3Q3l3AvT9BNRFwYG-69" vertex="1">
          <mxGeometry x="60" width="108" height="20" as="geometry">
            <mxRectangle width="108" height="20" as="alternateBounds" />
          </mxGeometry>
        </mxCell>
        <mxCell id="Yz3n3Q3l3AvT9BNRFwYG-72" value="FK" style="shape=partialRectangle;connectable=0;fillColor=none;top=0;left=0;bottom=0;right=0;align=left;spacingLeft=2;overflow=hidden;fontSize=11;" parent="Yz3n3Q3l3AvT9BNRFwYG-69" vertex="1">
          <mxGeometry x="168" width="32" height="20" as="geometry">
            <mxRectangle width="32" height="20" as="alternateBounds" />
          </mxGeometry>
        </mxCell>
        <mxCell id="Yz3n3Q3l3AvT9BNRFwYG-73" style="shape=tableRow;horizontal=0;startSize=0;swimlaneHead=0;swimlaneBody=0;fillColor=none;collapsible=0;dropTarget=0;points=[[0,0.5],[1,0.5]];portConstraint=eastwest;top=0;left=0;right=0;bottom=0;" parent="Yz3n3Q3l3AvT9BNRFwYG-68" vertex="1">
          <mxGeometry y="45" width="200" height="49" as="geometry" />
        </mxCell>
        <mxCell id="Yz3n3Q3l3AvT9BNRFwYG-74" value="string" style="shape=partialRectangle;connectable=0;fillColor=none;top=0;left=0;bottom=0;right=0;align=left;spacingLeft=2;overflow=hidden;fontSize=11;" parent="Yz3n3Q3l3AvT9BNRFwYG-73" vertex="1">
          <mxGeometry width="60" height="49" as="geometry">
            <mxRectangle width="60" height="49" as="alternateBounds" />
          </mxGeometry>
        </mxCell>
        <mxCell id="Yz3n3Q3l3AvT9BNRFwYG-75" value="Tipo (Tellevo,Â &#xa;OtraEmpresa)" style="shape=partialRectangle;connectable=0;fillColor=none;top=0;left=0;bottom=0;right=0;align=left;spacingLeft=2;overflow=hidden;fontSize=11;" parent="Yz3n3Q3l3AvT9BNRFwYG-73" vertex="1">
          <mxGeometry x="60" width="108" height="49" as="geometry">
            <mxRectangle width="108" height="49" as="alternateBounds" />
          </mxGeometry>
        </mxCell>
        <mxCell id="Yz3n3Q3l3AvT9BNRFwYG-76" value="" style="shape=partialRectangle;connectable=0;fillColor=none;top=0;left=0;bottom=0;right=0;align=left;spacingLeft=2;overflow=hidden;fontSize=11;" parent="Yz3n3Q3l3AvT9BNRFwYG-73" vertex="1">
          <mxGeometry x="168" width="32" height="49" as="geometry">
            <mxRectangle width="32" height="49" as="alternateBounds" />
          </mxGeometry>
        </mxCell>
        <mxCell id="Yz3n3Q3l3AvT9BNRFwYG-144" value="Chucherias" style="shape=table;startSize=25;container=1;collapsible=0;childLayout=tableLayout;fixedRows=1;rowLines=1;fontStyle=1;align=center;resizeLast=1;" parent="1" vertex="1">
          <mxGeometry x="430" y="120" width="230" height="186" as="geometry" />
        </mxCell>
        <mxCell id="Yz3n3Q3l3AvT9BNRFwYG-145" style="shape=tableRow;horizontal=0;startSize=0;swimlaneHead=0;swimlaneBody=0;fillColor=none;collapsible=0;dropTarget=0;points=[[0,0.5],[1,0.5]];portConstraint=eastwest;top=0;left=0;right=0;bottom=0;" parent="Yz3n3Q3l3AvT9BNRFwYG-144" vertex="1">
          <mxGeometry y="25" width="230" height="47" as="geometry" />
        </mxCell>
        <mxCell id="Yz3n3Q3l3AvT9BNRFwYG-146" value="int" style="shape=partialRectangle;connectable=0;fillColor=none;top=0;left=0;bottom=0;right=0;align=left;spacingLeft=2;overflow=hidden;fontSize=11;" parent="Yz3n3Q3l3AvT9BNRFwYG-145" vertex="1">
          <mxGeometry width="42" height="47" as="geometry">
            <mxRectangle width="42" height="47" as="alternateBounds" />
          </mxGeometry>
        </mxCell>
        <mxCell id="Yz3n3Q3l3AvT9BNRFwYG-147" value="id" style="shape=partialRectangle;connectable=0;fillColor=none;top=0;left=0;bottom=0;right=0;align=left;spacingLeft=2;overflow=hidden;fontSize=11;" parent="Yz3n3Q3l3AvT9BNRFwYG-145" vertex="1">
          <mxGeometry x="42" width="158" height="47" as="geometry">
            <mxRectangle width="158" height="47" as="alternateBounds" />
          </mxGeometry>
        </mxCell>
        <mxCell id="Yz3n3Q3l3AvT9BNRFwYG-148" value="PK" style="shape=partialRectangle;connectable=0;fillColor=none;top=0;left=0;bottom=0;right=0;align=left;spacingLeft=2;overflow=hidden;fontSize=11;" parent="Yz3n3Q3l3AvT9BNRFwYG-145" vertex="1">
          <mxGeometry x="200" width="30" height="47" as="geometry">
            <mxRectangle width="30" height="47" as="alternateBounds" />
          </mxGeometry>
        </mxCell>
        <mxCell id="Yz3n3Q3l3AvT9BNRFwYG-149" style="shape=tableRow;horizontal=0;startSize=0;swimlaneHead=0;swimlaneBody=0;fillColor=none;collapsible=0;dropTarget=0;points=[[0,0.5],[1,0.5]];portConstraint=eastwest;top=0;left=0;right=0;bottom=0;" parent="Yz3n3Q3l3AvT9BNRFwYG-144" vertex="1">
          <mxGeometry y="72" width="230" height="20" as="geometry" />
        </mxCell>
        <mxCell id="Yz3n3Q3l3AvT9BNRFwYG-150" value="string" style="shape=partialRectangle;connectable=0;fillColor=none;top=0;left=0;bottom=0;right=0;align=left;spacingLeft=2;overflow=hidden;fontSize=11;" parent="Yz3n3Q3l3AvT9BNRFwYG-149" vertex="1">
          <mxGeometry width="42" height="20" as="geometry">
            <mxRectangle width="42" height="20" as="alternateBounds" />
          </mxGeometry>
        </mxCell>
        <mxCell id="Yz3n3Q3l3AvT9BNRFwYG-151" value="nombre" style="shape=partialRectangle;connectable=0;fillColor=none;top=0;left=0;bottom=0;right=0;align=left;spacingLeft=2;overflow=hidden;fontSize=11;" parent="Yz3n3Q3l3AvT9BNRFwYG-149" vertex="1">
          <mxGeometry x="42" width="158" height="20" as="geometry">
            <mxRectangle width="158" height="20" as="alternateBounds" />
          </mxGeometry>
        </mxCell>
        <mxCell id="Yz3n3Q3l3AvT9BNRFwYG-152" value="" style="shape=partialRectangle;connectable=0;fillColor=none;top=0;left=0;bottom=0;right=0;align=left;spacingLeft=2;overflow=hidden;fontSize=11;" parent="Yz3n3Q3l3AvT9BNRFwYG-149" vertex="1">
          <mxGeometry x="200" width="30" height="20" as="geometry">
            <mxRectangle width="30" height="20" as="alternateBounds" />
          </mxGeometry>
        </mxCell>
        <mxCell id="Yz3n3Q3l3AvT9BNRFwYG-153" style="shape=tableRow;horizontal=0;startSize=0;swimlaneHead=0;swimlaneBody=0;fillColor=none;collapsible=0;dropTarget=0;points=[[0,0.5],[1,0.5]];portConstraint=eastwest;top=0;left=0;right=0;bottom=0;" parent="Yz3n3Q3l3AvT9BNRFwYG-144" vertex="1">
          <mxGeometry y="92" width="230" height="47" as="geometry" />
        </mxCell>
        <mxCell id="Yz3n3Q3l3AvT9BNRFwYG-154" value="decimal" style="shape=partialRectangle;connectable=0;fillColor=none;top=0;left=0;bottom=0;right=0;align=left;spacingLeft=2;overflow=hidden;fontSize=11;" parent="Yz3n3Q3l3AvT9BNRFwYG-153" vertex="1">
          <mxGeometry width="42" height="47" as="geometry">
            <mxRectangle width="42" height="47" as="alternateBounds" />
          </mxGeometry>
        </mxCell>
        <mxCell id="Yz3n3Q3l3AvT9BNRFwYG-155" value="precio" style="shape=partialRectangle;connectable=0;fillColor=none;top=0;left=0;bottom=0;right=0;align=left;spacingLeft=2;overflow=hidden;fontSize=11;" parent="Yz3n3Q3l3AvT9BNRFwYG-153" vertex="1">
          <mxGeometry x="42" width="158" height="47" as="geometry">
            <mxRectangle width="158" height="47" as="alternateBounds" />
          </mxGeometry>
        </mxCell>
        <mxCell id="Yz3n3Q3l3AvT9BNRFwYG-156" value="" style="shape=partialRectangle;connectable=0;fillColor=none;top=0;left=0;bottom=0;right=0;align=left;spacingLeft=2;overflow=hidden;fontSize=11;" parent="Yz3n3Q3l3AvT9BNRFwYG-153" vertex="1">
          <mxGeometry x="200" width="30" height="47" as="geometry">
            <mxRectangle width="30" height="47" as="alternateBounds" />
          </mxGeometry>
        </mxCell>
        <mxCell id="Yz3n3Q3l3AvT9BNRFwYG-203" style="shape=tableRow;horizontal=0;startSize=0;swimlaneHead=0;swimlaneBody=0;fillColor=none;collapsible=0;dropTarget=0;points=[[0,0.5],[1,0.5]];portConstraint=eastwest;top=0;left=0;right=0;bottom=0;" parent="Yz3n3Q3l3AvT9BNRFwYG-144" vertex="1">
          <mxGeometry y="139" width="230" height="47" as="geometry" />
        </mxCell>
        <mxCell id="Yz3n3Q3l3AvT9BNRFwYG-204" value="intÂ " style="shape=partialRectangle;connectable=0;fillColor=none;top=0;left=0;bottom=0;right=0;align=left;spacingLeft=2;overflow=hidden;fontSize=11;" parent="Yz3n3Q3l3AvT9BNRFwYG-203" vertex="1">
          <mxGeometry width="42" height="47" as="geometry">
            <mxRectangle width="42" height="47" as="alternateBounds" />
          </mxGeometry>
        </mxCell>
        <mxCell id="Yz3n3Q3l3AvT9BNRFwYG-205" value="idCategoriaChucheria" style="shape=partialRectangle;connectable=0;fillColor=none;top=0;left=0;bottom=0;right=0;align=left;spacingLeft=2;overflow=hidden;fontSize=11;" parent="Yz3n3Q3l3AvT9BNRFwYG-203" vertex="1">
          <mxGeometry x="42" width="158" height="47" as="geometry">
            <mxRectangle width="158" height="47" as="alternateBounds" />
          </mxGeometry>
        </mxCell>
        <mxCell id="Yz3n3Q3l3AvT9BNRFwYG-206" value="" style="shape=partialRectangle;connectable=0;fillColor=none;top=0;left=0;bottom=0;right=0;align=left;spacingLeft=2;overflow=hidden;fontSize=11;" parent="Yz3n3Q3l3AvT9BNRFwYG-203" vertex="1">
          <mxGeometry x="200" width="30" height="47" as="geometry">
            <mxRectangle width="30" height="47" as="alternateBounds" />
          </mxGeometry>
        </mxCell>
        <mxCell id="Yz3n3Q3l3AvT9BNRFwYG-169" value="VentasChucheria" style="shape=table;startSize=25;container=1;collapsible=0;childLayout=tableLayout;fixedRows=1;rowLines=1;fontStyle=1;align=center;resizeLast=1;" parent="1" vertex="1">
          <mxGeometry x="567" y="450" width="247" height="288" as="geometry" />
        </mxCell>
        <mxCell id="Yz3n3Q3l3AvT9BNRFwYG-170" style="shape=tableRow;horizontal=0;startSize=0;swimlaneHead=0;swimlaneBody=0;fillColor=none;collapsible=0;dropTarget=0;points=[[0,0.5],[1,0.5]];portConstraint=eastwest;top=0;left=0;right=0;bottom=0;" parent="Yz3n3Q3l3AvT9BNRFwYG-169" vertex="1">
          <mxGeometry y="25" width="247" height="47" as="geometry" />
        </mxCell>
        <mxCell id="Yz3n3Q3l3AvT9BNRFwYG-171" value="int" style="shape=partialRectangle;connectable=0;fillColor=none;top=0;left=0;bottom=0;right=0;align=left;spacingLeft=2;overflow=hidden;fontSize=11;" parent="Yz3n3Q3l3AvT9BNRFwYG-170" vertex="1">
          <mxGeometry width="47" height="47" as="geometry">
            <mxRectangle width="47" height="47" as="alternateBounds" />
          </mxGeometry>
        </mxCell>
        <mxCell id="Yz3n3Q3l3AvT9BNRFwYG-172" value="id" style="shape=partialRectangle;connectable=0;fillColor=none;top=0;left=0;bottom=0;right=0;align=left;spacingLeft=2;overflow=hidden;fontSize=11;" parent="Yz3n3Q3l3AvT9BNRFwYG-170" vertex="1">
          <mxGeometry x="47" width="178" height="47" as="geometry">
            <mxRectangle width="178" height="47" as="alternateBounds" />
          </mxGeometry>
        </mxCell>
        <mxCell id="Yz3n3Q3l3AvT9BNRFwYG-173" value="PK" style="shape=partialRectangle;connectable=0;fillColor=none;top=0;left=0;bottom=0;right=0;align=left;spacingLeft=2;overflow=hidden;fontSize=11;" parent="Yz3n3Q3l3AvT9BNRFwYG-170" vertex="1">
          <mxGeometry x="225" width="22" height="47" as="geometry">
            <mxRectangle width="22" height="47" as="alternateBounds" />
          </mxGeometry>
        </mxCell>
        <mxCell id="Yz3n3Q3l3AvT9BNRFwYG-174" style="shape=tableRow;horizontal=0;startSize=0;swimlaneHead=0;swimlaneBody=0;fillColor=none;collapsible=0;dropTarget=0;points=[[0,0.5],[1,0.5]];portConstraint=eastwest;top=0;left=0;right=0;bottom=0;" parent="Yz3n3Q3l3AvT9BNRFwYG-169" vertex="1">
          <mxGeometry y="72" width="247" height="47" as="geometry" />
        </mxCell>
        <mxCell id="Yz3n3Q3l3AvT9BNRFwYG-175" value="date" style="shape=partialRectangle;connectable=0;fillColor=none;top=0;left=0;bottom=0;right=0;align=left;spacingLeft=2;overflow=hidden;fontSize=11;" parent="Yz3n3Q3l3AvT9BNRFwYG-174" vertex="1">
          <mxGeometry width="47" height="47" as="geometry">
            <mxRectangle width="47" height="47" as="alternateBounds" />
          </mxGeometry>
        </mxCell>
        <mxCell id="Yz3n3Q3l3AvT9BNRFwYG-176" value="Fecha" style="shape=partialRectangle;connectable=0;fillColor=none;top=0;left=0;bottom=0;right=0;align=left;spacingLeft=2;overflow=hidden;fontSize=11;" parent="Yz3n3Q3l3AvT9BNRFwYG-174" vertex="1">
          <mxGeometry x="47" width="178" height="47" as="geometry">
            <mxRectangle width="178" height="47" as="alternateBounds" />
          </mxGeometry>
        </mxCell>
        <mxCell id="Yz3n3Q3l3AvT9BNRFwYG-177" value="" style="shape=partialRectangle;connectable=0;fillColor=none;top=0;left=0;bottom=0;right=0;align=left;spacingLeft=2;overflow=hidden;fontSize=11;" parent="Yz3n3Q3l3AvT9BNRFwYG-174" vertex="1">
          <mxGeometry x="225" width="22" height="47" as="geometry">
            <mxRectangle width="22" height="47" as="alternateBounds" />
          </mxGeometry>
        </mxCell>
        <mxCell id="Yz3n3Q3l3AvT9BNRFwYG-178" style="shape=tableRow;horizontal=0;startSize=0;swimlaneHead=0;swimlaneBody=0;fillColor=none;collapsible=0;dropTarget=0;points=[[0,0.5],[1,0.5]];portConstraint=eastwest;top=0;left=0;right=0;bottom=0;" parent="Yz3n3Q3l3AvT9BNRFwYG-169" vertex="1">
          <mxGeometry y="119" width="247" height="61" as="geometry" />
        </mxCell>
        <mxCell id="Yz3n3Q3l3AvT9BNRFwYG-179" value="int" style="shape=partialRectangle;connectable=0;fillColor=none;top=0;left=0;bottom=0;right=0;align=left;spacingLeft=2;overflow=hidden;fontSize=11;" parent="Yz3n3Q3l3AvT9BNRFwYG-178" vertex="1">
          <mxGeometry width="47" height="61" as="geometry">
            <mxRectangle width="47" height="61" as="alternateBounds" />
          </mxGeometry>
        </mxCell>
        <mxCell id="Yz3n3Q3l3AvT9BNRFwYG-180" value="idClienteÂ &#xa;(aqui se pone el nombre yÂ &#xa;ciudad del cliente)" style="shape=partialRectangle;connectable=0;fillColor=none;top=0;left=0;bottom=0;right=0;align=left;spacingLeft=2;overflow=hidden;fontSize=11;" parent="Yz3n3Q3l3AvT9BNRFwYG-178" vertex="1">
          <mxGeometry x="47" width="178" height="61" as="geometry">
            <mxRectangle width="178" height="61" as="alternateBounds" />
          </mxGeometry>
        </mxCell>
        <mxCell id="Yz3n3Q3l3AvT9BNRFwYG-181" value="FK" style="shape=partialRectangle;connectable=0;fillColor=none;top=0;left=0;bottom=0;right=0;align=left;spacingLeft=2;overflow=hidden;fontSize=11;" parent="Yz3n3Q3l3AvT9BNRFwYG-178" vertex="1">
          <mxGeometry x="225" width="22" height="61" as="geometry">
            <mxRectangle width="22" height="61" as="alternateBounds" />
          </mxGeometry>
        </mxCell>
        <mxCell id="Yz3n3Q3l3AvT9BNRFwYG-182" style="shape=tableRow;horizontal=0;startSize=0;swimlaneHead=0;swimlaneBody=0;fillColor=none;collapsible=0;dropTarget=0;points=[[0,0.5],[1,0.5]];portConstraint=eastwest;top=0;left=0;right=0;bottom=0;" parent="Yz3n3Q3l3AvT9BNRFwYG-169" vertex="1">
          <mxGeometry y="180" width="247" height="60" as="geometry" />
        </mxCell>
        <mxCell id="Yz3n3Q3l3AvT9BNRFwYG-183" value="int" style="shape=partialRectangle;connectable=0;fillColor=none;top=0;left=0;bottom=0;right=0;align=left;spacingLeft=2;overflow=hidden;fontSize=11;" parent="Yz3n3Q3l3AvT9BNRFwYG-182" vertex="1">
          <mxGeometry width="47" height="60" as="geometry">
            <mxRectangle width="47" height="60" as="alternateBounds" />
          </mxGeometry>
        </mxCell>
        <mxCell id="Yz3n3Q3l3AvT9BNRFwYG-184" value="idChucheriasÂ &#xa;(aqui se pone el nombre delÂ &#xa;Articulo)" style="shape=partialRectangle;connectable=0;fillColor=none;top=0;left=0;bottom=0;right=0;align=left;spacingLeft=2;overflow=hidden;fontSize=11;" parent="Yz3n3Q3l3AvT9BNRFwYG-182" vertex="1">
          <mxGeometry x="47" width="178" height="60" as="geometry">
            <mxRectangle width="178" height="60" as="alternateBounds" />
          </mxGeometry>
        </mxCell>
        <mxCell id="Yz3n3Q3l3AvT9BNRFwYG-185" value="" style="shape=partialRectangle;connectable=0;fillColor=none;top=0;left=0;bottom=0;right=0;align=left;spacingLeft=2;overflow=hidden;fontSize=11;" parent="Yz3n3Q3l3AvT9BNRFwYG-182" vertex="1">
          <mxGeometry x="225" width="22" height="60" as="geometry">
            <mxRectangle width="22" height="60" as="alternateBounds" />
          </mxGeometry>
        </mxCell>
        <mxCell id="Yz3n3Q3l3AvT9BNRFwYG-186" style="shape=tableRow;horizontal=0;startSize=0;swimlaneHead=0;swimlaneBody=0;fillColor=none;collapsible=0;dropTarget=0;points=[[0,0.5],[1,0.5]];portConstraint=eastwest;top=0;left=0;right=0;bottom=0;" parent="Yz3n3Q3l3AvT9BNRFwYG-169" vertex="1">
          <mxGeometry y="240" width="247" height="47" as="geometry" />
        </mxCell>
        <mxCell id="Yz3n3Q3l3AvT9BNRFwYG-187" value="int" style="shape=partialRectangle;connectable=0;fillColor=none;top=0;left=0;bottom=0;right=0;align=left;spacingLeft=2;overflow=hidden;fontSize=11;" parent="Yz3n3Q3l3AvT9BNRFwYG-186" vertex="1">
          <mxGeometry width="47" height="47" as="geometry">
            <mxRectangle width="47" height="47" as="alternateBounds" />
          </mxGeometry>
        </mxCell>
        <mxCell id="Yz3n3Q3l3AvT9BNRFwYG-188" value="Cantidad" style="shape=partialRectangle;connectable=0;fillColor=none;top=0;left=0;bottom=0;right=0;align=left;spacingLeft=2;overflow=hidden;fontSize=11;" parent="Yz3n3Q3l3AvT9BNRFwYG-186" vertex="1">
          <mxGeometry x="47" width="178" height="47" as="geometry">
            <mxRectangle width="178" height="47" as="alternateBounds" />
          </mxGeometry>
        </mxCell>
        <mxCell id="Yz3n3Q3l3AvT9BNRFwYG-189" value="" style="shape=partialRectangle;connectable=0;fillColor=none;top=0;left=0;bottom=0;right=0;align=left;spacingLeft=2;overflow=hidden;fontSize=11;" parent="Yz3n3Q3l3AvT9BNRFwYG-186" vertex="1">
          <mxGeometry x="225" width="22" height="47" as="geometry">
            <mxRectangle width="22" height="47" as="alternateBounds" />
          </mxGeometry>
        </mxCell>
        <mxCell id="Yz3n3Q3l3AvT9BNRFwYG-190" value="Rol" style="shape=table;startSize=25;container=1;collapsible=0;childLayout=tableLayout;fixedRows=1;rowLines=1;fontStyle=1;align=center;resizeLast=1;" parent="1" vertex="1">
          <mxGeometry x="555" y="-190" width="200" height="94" as="geometry" />
        </mxCell>
        <mxCell id="Yz3n3Q3l3AvT9BNRFwYG-191" style="shape=tableRow;horizontal=0;startSize=0;swimlaneHead=0;swimlaneBody=0;fillColor=none;collapsible=0;dropTarget=0;points=[[0,0.5],[1,0.5]];portConstraint=eastwest;top=0;left=0;right=0;bottom=0;" parent="Yz3n3Q3l3AvT9BNRFwYG-190" vertex="1">
          <mxGeometry y="25" width="200" height="20" as="geometry" />
        </mxCell>
        <mxCell id="Yz3n3Q3l3AvT9BNRFwYG-192" value="int" style="shape=partialRectangle;connectable=0;fillColor=none;top=0;left=0;bottom=0;right=0;align=left;spacingLeft=2;overflow=hidden;fontSize=11;" parent="Yz3n3Q3l3AvT9BNRFwYG-191" vertex="1">
          <mxGeometry width="60" height="20" as="geometry">
            <mxRectangle width="60" height="20" as="alternateBounds" />
          </mxGeometry>
        </mxCell>
        <mxCell id="Yz3n3Q3l3AvT9BNRFwYG-193" value="id" style="shape=partialRectangle;connectable=0;fillColor=none;top=0;left=0;bottom=0;right=0;align=left;spacingLeft=2;overflow=hidden;fontSize=11;" parent="Yz3n3Q3l3AvT9BNRFwYG-191" vertex="1">
          <mxGeometry x="60" width="108" height="20" as="geometry">
            <mxRectangle width="108" height="20" as="alternateBounds" />
          </mxGeometry>
        </mxCell>
        <mxCell id="Yz3n3Q3l3AvT9BNRFwYG-194" value="FK" style="shape=partialRectangle;connectable=0;fillColor=none;top=0;left=0;bottom=0;right=0;align=left;spacingLeft=2;overflow=hidden;fontSize=11;" parent="Yz3n3Q3l3AvT9BNRFwYG-191" vertex="1">
          <mxGeometry x="168" width="32" height="20" as="geometry">
            <mxRectangle width="32" height="20" as="alternateBounds" />
          </mxGeometry>
        </mxCell>
        <mxCell id="Yz3n3Q3l3AvT9BNRFwYG-195" style="shape=tableRow;horizontal=0;startSize=0;swimlaneHead=0;swimlaneBody=0;fillColor=none;collapsible=0;dropTarget=0;points=[[0,0.5],[1,0.5]];portConstraint=eastwest;top=0;left=0;right=0;bottom=0;" parent="Yz3n3Q3l3AvT9BNRFwYG-190" vertex="1">
          <mxGeometry y="45" width="200" height="49" as="geometry" />
        </mxCell>
        <mxCell id="Yz3n3Q3l3AvT9BNRFwYG-196" value="string" style="shape=partialRectangle;connectable=0;fillColor=none;top=0;left=0;bottom=0;right=0;align=left;spacingLeft=2;overflow=hidden;fontSize=11;" parent="Yz3n3Q3l3AvT9BNRFwYG-195" vertex="1">
          <mxGeometry width="60" height="49" as="geometry">
            <mxRectangle width="60" height="49" as="alternateBounds" />
          </mxGeometry>
        </mxCell>
        <mxCell id="Yz3n3Q3l3AvT9BNRFwYG-197" value="rol (admin oÂ &#xa;conductor)" style="shape=partialRectangle;connectable=0;fillColor=none;top=0;left=0;bottom=0;right=0;align=left;spacingLeft=2;overflow=hidden;fontSize=11;" parent="Yz3n3Q3l3AvT9BNRFwYG-195" vertex="1">
          <mxGeometry x="60" width="108" height="49" as="geometry">
            <mxRectangle width="108" height="49" as="alternateBounds" />
          </mxGeometry>
        </mxCell>
        <mxCell id="Yz3n3Q3l3AvT9BNRFwYG-198" value="" style="shape=partialRectangle;connectable=0;fillColor=none;top=0;left=0;bottom=0;right=0;align=left;spacingLeft=2;overflow=hidden;fontSize=11;" parent="Yz3n3Q3l3AvT9BNRFwYG-195" vertex="1">
          <mxGeometry x="168" width="32" height="49" as="geometry">
            <mxRectangle width="32" height="49" as="alternateBounds" />
          </mxGeometry>
        </mxCell>
        <mxCell id="Yz3n3Q3l3AvT9BNRFwYG-224" value="FacturaChucheria" style="shape=table;startSize=25;container=1;collapsible=0;childLayout=tableLayout;fixedRows=1;rowLines=1;fontStyle=1;align=center;resizeLast=1;" parent="1" vertex="1">
          <mxGeometry x="530" y="770" width="250" height="238" as="geometry" />
        </mxCell>
        <mxCell id="Yz3n3Q3l3AvT9BNRFwYG-225" style="shape=tableRow;horizontal=0;startSize=0;swimlaneHead=0;swimlaneBody=0;fillColor=none;collapsible=0;dropTarget=0;points=[[0,0.5],[1,0.5]];portConstraint=eastwest;top=0;left=0;right=0;bottom=0;" parent="Yz3n3Q3l3AvT9BNRFwYG-224" vertex="1">
          <mxGeometry y="25" width="250" height="20" as="geometry" />
        </mxCell>
        <mxCell id="Yz3n3Q3l3AvT9BNRFwYG-226" value="int" style="shape=partialRectangle;connectable=0;fillColor=none;top=0;left=0;bottom=0;right=0;align=left;spacingLeft=2;overflow=hidden;fontSize=11;" parent="Yz3n3Q3l3AvT9BNRFwYG-225" vertex="1">
          <mxGeometry width="51.5" height="20" as="geometry">
            <mxRectangle width="51.5" height="20" as="alternateBounds" />
          </mxGeometry>
        </mxCell>
        <mxCell id="Yz3n3Q3l3AvT9BNRFwYG-227" value="funda" style="shape=partialRectangle;connectable=0;fillColor=none;top=0;left=0;bottom=0;right=0;align=left;spacingLeft=2;overflow=hidden;fontSize=11;" parent="Yz3n3Q3l3AvT9BNRFwYG-225" vertex="1">
          <mxGeometry x="51.5" width="178.5" height="20" as="geometry">
            <mxRectangle width="178.5" height="20" as="alternateBounds" />
          </mxGeometry>
        </mxCell>
        <mxCell id="Yz3n3Q3l3AvT9BNRFwYG-228" value="FK" style="shape=partialRectangle;connectable=0;fillColor=none;top=0;left=0;bottom=0;right=0;align=left;spacingLeft=2;overflow=hidden;fontSize=11;" parent="Yz3n3Q3l3AvT9BNRFwYG-225" vertex="1">
          <mxGeometry x="230" width="20" height="20" as="geometry">
            <mxRectangle width="20" height="20" as="alternateBounds" />
          </mxGeometry>
        </mxCell>
        <mxCell id="Yz3n3Q3l3AvT9BNRFwYG-229" style="shape=tableRow;horizontal=0;startSize=0;swimlaneHead=0;swimlaneBody=0;fillColor=none;collapsible=0;dropTarget=0;points=[[0,0.5],[1,0.5]];portConstraint=eastwest;top=0;left=0;right=0;bottom=0;" parent="Yz3n3Q3l3AvT9BNRFwYG-224" vertex="1">
          <mxGeometry y="45" width="250" height="95" as="geometry" />
        </mxCell>
        <mxCell id="Yz3n3Q3l3AvT9BNRFwYG-230" value="id" style="shape=partialRectangle;connectable=0;fillColor=none;top=0;left=0;bottom=0;right=0;align=left;spacingLeft=2;overflow=hidden;fontSize=11;" parent="Yz3n3Q3l3AvT9BNRFwYG-229" vertex="1">
          <mxGeometry width="51.5" height="95" as="geometry">
            <mxRectangle width="51.5" height="95" as="alternateBounds" />
          </mxGeometry>
        </mxCell>
        <mxCell id="Yz3n3Q3l3AvT9BNRFwYG-231" value="idVentasChucheriaÂ &#xa;(Se coloca&#xa;-Cliente: nombre, ciudad&#xa;-Chucherias: nombre, precio&#xa;-VentasChucheria: cantidad, fecha)" style="shape=partialRectangle;connectable=0;fillColor=none;top=0;left=0;bottom=0;right=0;align=left;spacingLeft=2;overflow=hidden;fontSize=11;" parent="Yz3n3Q3l3AvT9BNRFwYG-229" vertex="1">
          <mxGeometry x="51.5" width="178.5" height="95" as="geometry">
            <mxRectangle width="178.5" height="95" as="alternateBounds" />
          </mxGeometry>
        </mxCell>
        <mxCell id="Yz3n3Q3l3AvT9BNRFwYG-232" value="FK" style="shape=partialRectangle;connectable=0;fillColor=none;top=0;left=0;bottom=0;right=0;align=left;spacingLeft=2;overflow=hidden;fontSize=11;" parent="Yz3n3Q3l3AvT9BNRFwYG-229" vertex="1">
          <mxGeometry x="230" width="20" height="95" as="geometry">
            <mxRectangle width="20" height="95" as="alternateBounds" />
          </mxGeometry>
        </mxCell>
        <mxCell id="Yz3n3Q3l3AvT9BNRFwYG-233" style="shape=tableRow;horizontal=0;startSize=0;swimlaneHead=0;swimlaneBody=0;fillColor=none;collapsible=0;dropTarget=0;points=[[0,0.5],[1,0.5]];portConstraint=eastwest;top=0;left=0;right=0;bottom=0;" parent="Yz3n3Q3l3AvT9BNRFwYG-224" vertex="1">
          <mxGeometry y="140" width="250" height="49" as="geometry" />
        </mxCell>
        <mxCell id="Yz3n3Q3l3AvT9BNRFwYG-234" value="decimal" style="shape=partialRectangle;connectable=0;fillColor=none;top=0;left=0;bottom=0;right=0;align=left;spacingLeft=2;overflow=hidden;fontSize=11;" parent="Yz3n3Q3l3AvT9BNRFwYG-233" vertex="1">
          <mxGeometry width="51.5" height="49" as="geometry">
            <mxRectangle width="51.5" height="49" as="alternateBounds" />
          </mxGeometry>
        </mxCell>
        <mxCell id="Yz3n3Q3l3AvT9BNRFwYG-235" value="subtotal" style="shape=partialRectangle;connectable=0;fillColor=none;top=0;left=0;bottom=0;right=0;align=left;spacingLeft=2;overflow=hidden;fontSize=11;" parent="Yz3n3Q3l3AvT9BNRFwYG-233" vertex="1">
          <mxGeometry x="51.5" width="178.5" height="49" as="geometry">
            <mxRectangle width="178.5" height="49" as="alternateBounds" />
          </mxGeometry>
        </mxCell>
        <mxCell id="Yz3n3Q3l3AvT9BNRFwYG-236" value="" style="shape=partialRectangle;connectable=0;fillColor=none;top=0;left=0;bottom=0;right=0;align=left;spacingLeft=2;overflow=hidden;fontSize=11;" parent="Yz3n3Q3l3AvT9BNRFwYG-233" vertex="1">
          <mxGeometry x="230" width="20" height="49" as="geometry">
            <mxRectangle width="20" height="49" as="alternateBounds" />
          </mxGeometry>
        </mxCell>
        <mxCell id="Yz3n3Q3l3AvT9BNRFwYG-237" style="shape=tableRow;horizontal=0;startSize=0;swimlaneHead=0;swimlaneBody=0;fillColor=none;collapsible=0;dropTarget=0;points=[[0,0.5],[1,0.5]];portConstraint=eastwest;top=0;left=0;right=0;bottom=0;" parent="Yz3n3Q3l3AvT9BNRFwYG-224" vertex="1">
          <mxGeometry y="189" width="250" height="49" as="geometry" />
        </mxCell>
        <mxCell id="Yz3n3Q3l3AvT9BNRFwYG-238" value="decimal" style="shape=partialRectangle;connectable=0;fillColor=none;top=0;left=0;bottom=0;right=0;align=left;spacingLeft=2;overflow=hidden;fontSize=11;" parent="Yz3n3Q3l3AvT9BNRFwYG-237" vertex="1">
          <mxGeometry width="51.5" height="49" as="geometry">
            <mxRectangle width="51.5" height="49" as="alternateBounds" />
          </mxGeometry>
        </mxCell>
        <mxCell id="Yz3n3Q3l3AvT9BNRFwYG-239" value="Total" style="shape=partialRectangle;connectable=0;fillColor=none;top=0;left=0;bottom=0;right=0;align=left;spacingLeft=2;overflow=hidden;fontSize=11;" parent="Yz3n3Q3l3AvT9BNRFwYG-237" vertex="1">
          <mxGeometry x="51.5" width="178.5" height="49" as="geometry">
            <mxRectangle width="178.5" height="49" as="alternateBounds" />
          </mxGeometry>
        </mxCell>
        <mxCell id="Yz3n3Q3l3AvT9BNRFwYG-240" value="" style="shape=partialRectangle;connectable=0;fillColor=none;top=0;left=0;bottom=0;right=0;align=left;spacingLeft=2;overflow=hidden;fontSize=11;" parent="Yz3n3Q3l3AvT9BNRFwYG-237" vertex="1">
          <mxGeometry x="230" width="20" height="49" as="geometry">
            <mxRectangle width="20" height="49" as="alternateBounds" />
          </mxGeometry>
        </mxCell>
        <mxCell id="Yz3n3Q3l3AvT9BNRFwYG-245" style="edgeStyle=orthogonalEdgeStyle;rounded=0;orthogonalLoop=1;jettySize=auto;html=1;exitX=1;exitY=0.5;exitDx=0;exitDy=0;entryX=0.015;entryY=0.613;entryDx=0;entryDy=0;entryPerimeter=0;" parent="1" source="3" target="Yz3n3Q3l3AvT9BNRFwYG-178" edge="1">
          <mxGeometry relative="1" as="geometry" />
        </mxCell>
        <mxCell id="Yz3n3Q3l3AvT9BNRFwYG-246" style="edgeStyle=orthogonalEdgeStyle;rounded=0;orthogonalLoop=1;jettySize=auto;html=1;exitX=1;exitY=0.5;exitDx=0;exitDy=0;" parent="1" source="32" edge="1">
          <mxGeometry relative="1" as="geometry">
            <mxPoint x="30" y="160" as="targetPoint" />
            <Array as="points">
              <mxPoint x="265" y="677" />
              <mxPoint x="265" y="406" />
              <mxPoint x="10" y="406" />
              <mxPoint x="10" y="160" />
            </Array>
          </mxGeometry>
        </mxCell>
        <mxCell id="Yz3n3Q3l3AvT9BNRFwYG-248" style="edgeStyle=orthogonalEdgeStyle;rounded=0;orthogonalLoop=1;jettySize=auto;html=1;exitX=0;exitY=0.5;exitDx=0;exitDy=0;entryX=1.007;entryY=0.617;entryDx=0;entryDy=0;entryPerimeter=0;" parent="1" source="Yz3n3Q3l3AvT9BNRFwYG-182" target="Yz3n3Q3l3AvT9BNRFwYG-145" edge="1">
          <mxGeometry relative="1" as="geometry" />
        </mxCell>
        <mxCell id="Yz3n3Q3l3AvT9BNRFwYG-249" style="edgeStyle=orthogonalEdgeStyle;rounded=0;orthogonalLoop=1;jettySize=auto;html=1;exitX=1;exitY=0.5;exitDx=0;exitDy=0;entryX=0.017;entryY=0.632;entryDx=0;entryDy=0;entryPerimeter=0;" parent="1" source="28" target="3" edge="1">
          <mxGeometry relative="1" as="geometry" />
        </mxCell>
        <mxCell id="Yz3n3Q3l3AvT9BNRFwYG-255" style="edgeStyle=orthogonalEdgeStyle;rounded=0;orthogonalLoop=1;jettySize=auto;html=1;exitX=1;exitY=0.5;exitDx=0;exitDy=0;entryX=0.994;entryY=0.705;entryDx=0;entryDy=0;entryPerimeter=0;" parent="1" source="58" target="20" edge="1">
          <mxGeometry relative="1" as="geometry" />
        </mxCell>
        <mxCell id="Yz3n3Q3l3AvT9BNRFwYG-257" style="edgeStyle=orthogonalEdgeStyle;rounded=0;orthogonalLoop=1;jettySize=auto;html=1;exitX=0;exitY=0.5;exitDx=0;exitDy=0;entryX=0;entryY=0.5;entryDx=0;entryDy=0;" parent="1" source="Yz3n3Q3l3AvT9BNRFwYG-229" target="Yz3n3Q3l3AvT9BNRFwYG-170" edge="1">
          <mxGeometry relative="1" as="geometry" />
        </mxCell>
        <mxCell id="NDiBjuCwO_tEZHanY2jY-65" value="Clientes" style="shape=table;startSize=25;container=1;collapsible=0;childLayout=tableLayout;fixedRows=1;rowLines=1;fontStyle=1;align=center;resizeLast=1;" vertex="1" parent="1">
          <mxGeometry x="-190" y="-430" width="177" height="463" as="geometry" />
        </mxCell>
        <mxCell id="NDiBjuCwO_tEZHanY2jY-66" style="shape=tableRow;horizontal=0;startSize=0;swimlaneHead=0;swimlaneBody=0;fillColor=none;collapsible=0;dropTarget=0;points=[[0,0.5],[1,0.5]];portConstraint=eastwest;top=0;left=0;right=0;bottom=0;" vertex="1" parent="NDiBjuCwO_tEZHanY2jY-65">
          <mxGeometry y="25" width="177" height="47" as="geometry" />
        </mxCell>
        <mxCell id="NDiBjuCwO_tEZHanY2jY-67" value="int" style="shape=partialRectangle;connectable=0;fillColor=none;top=0;left=0;bottom=0;right=0;align=left;spacingLeft=2;overflow=hidden;fontSize=11;" vertex="1" parent="NDiBjuCwO_tEZHanY2jY-66">
          <mxGeometry width="70" height="47" as="geometry">
            <mxRectangle width="70" height="47" as="alternateBounds" />
          </mxGeometry>
        </mxCell>
        <mxCell id="NDiBjuCwO_tEZHanY2jY-68" value="cedula" style="shape=partialRectangle;connectable=0;fillColor=none;top=0;left=0;bottom=0;right=0;align=left;spacingLeft=2;overflow=hidden;fontSize=11;" vertex="1" parent="NDiBjuCwO_tEZHanY2jY-66">
          <mxGeometry x="70" width="85" height="47" as="geometry">
            <mxRectangle width="85" height="47" as="alternateBounds" />
          </mxGeometry>
        </mxCell>
        <mxCell id="NDiBjuCwO_tEZHanY2jY-69" value="PK" style="shape=partialRectangle;connectable=0;fillColor=none;top=0;left=0;bottom=0;right=0;align=left;spacingLeft=2;overflow=hidden;fontSize=11;" vertex="1" parent="NDiBjuCwO_tEZHanY2jY-66">
          <mxGeometry x="155" width="22" height="47" as="geometry">
            <mxRectangle width="22" height="47" as="alternateBounds" />
          </mxGeometry>
        </mxCell>
        <mxCell id="NDiBjuCwO_tEZHanY2jY-70" style="shape=tableRow;horizontal=0;startSize=0;swimlaneHead=0;swimlaneBody=0;fillColor=none;collapsible=0;dropTarget=0;points=[[0,0.5],[1,0.5]];portConstraint=eastwest;top=0;left=0;right=0;bottom=0;" vertex="1" parent="NDiBjuCwO_tEZHanY2jY-65">
          <mxGeometry y="72" width="177" height="47" as="geometry" />
        </mxCell>
        <mxCell id="NDiBjuCwO_tEZHanY2jY-71" value="string" style="shape=partialRectangle;connectable=0;fillColor=none;top=0;left=0;bottom=0;right=0;align=left;spacingLeft=2;overflow=hidden;fontSize=11;" vertex="1" parent="NDiBjuCwO_tEZHanY2jY-70">
          <mxGeometry width="70" height="47" as="geometry">
            <mxRectangle width="70" height="47" as="alternateBounds" />
          </mxGeometry>
        </mxCell>
        <mxCell id="NDiBjuCwO_tEZHanY2jY-72" value="nombres" style="shape=partialRectangle;connectable=0;fillColor=none;top=0;left=0;bottom=0;right=0;align=left;spacingLeft=2;overflow=hidden;fontSize=11;" vertex="1" parent="NDiBjuCwO_tEZHanY2jY-70">
          <mxGeometry x="70" width="85" height="47" as="geometry">
            <mxRectangle width="85" height="47" as="alternateBounds" />
          </mxGeometry>
        </mxCell>
        <mxCell id="NDiBjuCwO_tEZHanY2jY-73" value="" style="shape=partialRectangle;connectable=0;fillColor=none;top=0;left=0;bottom=0;right=0;align=left;spacingLeft=2;overflow=hidden;fontSize=11;" vertex="1" parent="NDiBjuCwO_tEZHanY2jY-70">
          <mxGeometry x="155" width="22" height="47" as="geometry">
            <mxRectangle width="22" height="47" as="alternateBounds" />
          </mxGeometry>
        </mxCell>
        <mxCell id="NDiBjuCwO_tEZHanY2jY-74" style="shape=tableRow;horizontal=0;startSize=0;swimlaneHead=0;swimlaneBody=0;fillColor=none;collapsible=0;dropTarget=0;points=[[0,0.5],[1,0.5]];portConstraint=eastwest;top=0;left=0;right=0;bottom=0;" vertex="1" parent="NDiBjuCwO_tEZHanY2jY-65">
          <mxGeometry y="119" width="177" height="47" as="geometry" />
        </mxCell>
        <mxCell id="NDiBjuCwO_tEZHanY2jY-75" value="string" style="shape=partialRectangle;connectable=0;fillColor=none;top=0;left=0;bottom=0;right=0;align=left;spacingLeft=2;overflow=hidden;fontSize=11;" vertex="1" parent="NDiBjuCwO_tEZHanY2jY-74">
          <mxGeometry width="70" height="47" as="geometry">
            <mxRectangle width="70" height="47" as="alternateBounds" />
          </mxGeometry>
        </mxCell>
        <mxCell id="NDiBjuCwO_tEZHanY2jY-76" value="apellidos" style="shape=partialRectangle;connectable=0;fillColor=none;top=0;left=0;bottom=0;right=0;align=left;spacingLeft=2;overflow=hidden;fontSize=11;" vertex="1" parent="NDiBjuCwO_tEZHanY2jY-74">
          <mxGeometry x="70" width="85" height="47" as="geometry">
            <mxRectangle width="85" height="47" as="alternateBounds" />
          </mxGeometry>
        </mxCell>
        <mxCell id="NDiBjuCwO_tEZHanY2jY-77" value="" style="shape=partialRectangle;connectable=0;fillColor=none;top=0;left=0;bottom=0;right=0;align=left;spacingLeft=2;overflow=hidden;fontSize=11;" vertex="1" parent="NDiBjuCwO_tEZHanY2jY-74">
          <mxGeometry x="155" width="22" height="47" as="geometry">
            <mxRectangle width="22" height="47" as="alternateBounds" />
          </mxGeometry>
        </mxCell>
        <mxCell id="NDiBjuCwO_tEZHanY2jY-78" style="shape=tableRow;horizontal=0;startSize=0;swimlaneHead=0;swimlaneBody=0;fillColor=none;collapsible=0;dropTarget=0;points=[[0,0.5],[1,0.5]];portConstraint=eastwest;top=0;left=0;right=0;bottom=0;" vertex="1" parent="NDiBjuCwO_tEZHanY2jY-65">
          <mxGeometry y="166" width="177" height="47" as="geometry" />
        </mxCell>
        <mxCell id="NDiBjuCwO_tEZHanY2jY-79" value="string" style="shape=partialRectangle;connectable=0;fillColor=none;top=0;left=0;bottom=0;right=0;align=left;spacingLeft=2;overflow=hidden;fontSize=11;" vertex="1" parent="NDiBjuCwO_tEZHanY2jY-78">
          <mxGeometry width="70" height="47" as="geometry">
            <mxRectangle width="70" height="47" as="alternateBounds" />
          </mxGeometry>
        </mxCell>
        <mxCell id="NDiBjuCwO_tEZHanY2jY-80" value="Telefono" style="shape=partialRectangle;connectable=0;fillColor=none;top=0;left=0;bottom=0;right=0;align=left;spacingLeft=2;overflow=hidden;fontSize=11;" vertex="1" parent="NDiBjuCwO_tEZHanY2jY-78">
          <mxGeometry x="70" width="85" height="47" as="geometry">
            <mxRectangle width="85" height="47" as="alternateBounds" />
          </mxGeometry>
        </mxCell>
        <mxCell id="NDiBjuCwO_tEZHanY2jY-81" value="" style="shape=partialRectangle;connectable=0;fillColor=none;top=0;left=0;bottom=0;right=0;align=left;spacingLeft=2;overflow=hidden;fontSize=11;" vertex="1" parent="NDiBjuCwO_tEZHanY2jY-78">
          <mxGeometry x="155" width="22" height="47" as="geometry">
            <mxRectangle width="22" height="47" as="alternateBounds" />
          </mxGeometry>
        </mxCell>
        <mxCell id="NDiBjuCwO_tEZHanY2jY-86" style="shape=tableRow;horizontal=0;startSize=0;swimlaneHead=0;swimlaneBody=0;fillColor=none;collapsible=0;dropTarget=0;points=[[0,0.5],[1,0.5]];portConstraint=eastwest;top=0;left=0;right=0;bottom=0;" vertex="1" parent="NDiBjuCwO_tEZHanY2jY-65">
          <mxGeometry y="213" width="177" height="47" as="geometry" />
        </mxCell>
        <mxCell id="NDiBjuCwO_tEZHanY2jY-87" value="string" style="shape=partialRectangle;connectable=0;fillColor=none;top=0;left=0;bottom=0;right=0;align=left;spacingLeft=2;overflow=hidden;fontSize=11;" vertex="1" parent="NDiBjuCwO_tEZHanY2jY-86">
          <mxGeometry width="70" height="47" as="geometry">
            <mxRectangle width="70" height="47" as="alternateBounds" />
          </mxGeometry>
        </mxCell>
        <mxCell id="NDiBjuCwO_tEZHanY2jY-88" value="Correo" style="shape=partialRectangle;connectable=0;fillColor=none;top=0;left=0;bottom=0;right=0;align=left;spacingLeft=2;overflow=hidden;fontSize=11;" vertex="1" parent="NDiBjuCwO_tEZHanY2jY-86">
          <mxGeometry x="70" width="85" height="47" as="geometry">
            <mxRectangle width="85" height="47" as="alternateBounds" />
          </mxGeometry>
        </mxCell>
        <mxCell id="NDiBjuCwO_tEZHanY2jY-89" value="" style="shape=partialRectangle;connectable=0;fillColor=none;top=0;left=0;bottom=0;right=0;align=left;spacingLeft=2;overflow=hidden;fontSize=11;" vertex="1" parent="NDiBjuCwO_tEZHanY2jY-86">
          <mxGeometry x="155" width="22" height="47" as="geometry">
            <mxRectangle width="22" height="47" as="alternateBounds" />
          </mxGeometry>
        </mxCell>
        <mxCell id="NDiBjuCwO_tEZHanY2jY-90" style="shape=tableRow;horizontal=0;startSize=0;swimlaneHead=0;swimlaneBody=0;fillColor=none;collapsible=0;dropTarget=0;points=[[0,0.5],[1,0.5]];portConstraint=eastwest;top=0;left=0;right=0;bottom=0;" vertex="1" parent="NDiBjuCwO_tEZHanY2jY-65">
          <mxGeometry y="260" width="177" height="43" as="geometry" />
        </mxCell>
        <mxCell id="NDiBjuCwO_tEZHanY2jY-91" value="string" style="shape=partialRectangle;connectable=0;fillColor=none;top=0;left=0;bottom=0;right=0;align=left;spacingLeft=2;overflow=hidden;fontSize=11;" vertex="1" parent="NDiBjuCwO_tEZHanY2jY-90">
          <mxGeometry width="70" height="43" as="geometry">
            <mxRectangle width="70" height="43" as="alternateBounds" />
          </mxGeometry>
        </mxCell>
        <mxCell id="NDiBjuCwO_tEZHanY2jY-92" value="ContraseÃ±a" style="shape=partialRectangle;connectable=0;fillColor=none;top=0;left=0;bottom=0;right=0;align=left;spacingLeft=2;overflow=hidden;fontSize=11;" vertex="1" parent="NDiBjuCwO_tEZHanY2jY-90">
          <mxGeometry x="70" width="85" height="43" as="geometry">
            <mxRectangle width="85" height="43" as="alternateBounds" />
          </mxGeometry>
        </mxCell>
        <mxCell id="NDiBjuCwO_tEZHanY2jY-93" value="" style="shape=partialRectangle;connectable=0;fillColor=none;top=0;left=0;bottom=0;right=0;align=left;spacingLeft=2;overflow=hidden;fontSize=11;" vertex="1" parent="NDiBjuCwO_tEZHanY2jY-90">
          <mxGeometry x="155" width="22" height="43" as="geometry">
            <mxRectangle width="22" height="43" as="alternateBounds" />
          </mxGeometry>
        </mxCell>
        <mxCell id="NDiBjuCwO_tEZHanY2jY-131" style="shape=tableRow;horizontal=0;startSize=0;swimlaneHead=0;swimlaneBody=0;fillColor=none;collapsible=0;dropTarget=0;points=[[0,0.5],[1,0.5]];portConstraint=eastwest;top=0;left=0;right=0;bottom=0;" vertex="1" parent="NDiBjuCwO_tEZHanY2jY-65">
          <mxGeometry y="303" width="177" height="40" as="geometry" />
        </mxCell>
        <mxCell id="NDiBjuCwO_tEZHanY2jY-132" value="string" style="shape=partialRectangle;connectable=0;fillColor=none;top=0;left=0;bottom=0;right=0;align=left;spacingLeft=2;overflow=hidden;fontSize=11;" vertex="1" parent="NDiBjuCwO_tEZHanY2jY-131">
          <mxGeometry width="70" height="40" as="geometry">
            <mxRectangle width="70" height="40" as="alternateBounds" />
          </mxGeometry>
        </mxCell>
        <mxCell id="NDiBjuCwO_tEZHanY2jY-133" value="Coordenas" style="shape=partialRectangle;connectable=0;fillColor=none;top=0;left=0;bottom=0;right=0;align=left;spacingLeft=2;overflow=hidden;fontSize=11;" vertex="1" parent="NDiBjuCwO_tEZHanY2jY-131">
          <mxGeometry x="70" width="85" height="40" as="geometry">
            <mxRectangle width="85" height="40" as="alternateBounds" />
          </mxGeometry>
        </mxCell>
        <mxCell id="NDiBjuCwO_tEZHanY2jY-134" value="" style="shape=partialRectangle;connectable=0;fillColor=none;top=0;left=0;bottom=0;right=0;align=left;spacingLeft=2;overflow=hidden;fontSize=11;" vertex="1" parent="NDiBjuCwO_tEZHanY2jY-131">
          <mxGeometry x="155" width="22" height="40" as="geometry">
            <mxRectangle width="22" height="40" as="alternateBounds" />
          </mxGeometry>
        </mxCell>
        <mxCell id="NDiBjuCwO_tEZHanY2jY-135" style="shape=tableRow;horizontal=0;startSize=0;swimlaneHead=0;swimlaneBody=0;fillColor=none;collapsible=0;dropTarget=0;points=[[0,0.5],[1,0.5]];portConstraint=eastwest;top=0;left=0;right=0;bottom=0;" vertex="1" parent="NDiBjuCwO_tEZHanY2jY-65">
          <mxGeometry y="343" width="177" height="40" as="geometry" />
        </mxCell>
        <mxCell id="NDiBjuCwO_tEZHanY2jY-136" value="string" style="shape=partialRectangle;connectable=0;fillColor=none;top=0;left=0;bottom=0;right=0;align=left;spacingLeft=2;overflow=hidden;fontSize=11;" vertex="1" parent="NDiBjuCwO_tEZHanY2jY-135">
          <mxGeometry width="70" height="40" as="geometry">
            <mxRectangle width="70" height="40" as="alternateBounds" />
          </mxGeometry>
        </mxCell>
        <mxCell id="NDiBjuCwO_tEZHanY2jY-137" value="Referencia" style="shape=partialRectangle;connectable=0;fillColor=none;top=0;left=0;bottom=0;right=0;align=left;spacingLeft=2;overflow=hidden;fontSize=11;" vertex="1" parent="NDiBjuCwO_tEZHanY2jY-135">
          <mxGeometry x="70" width="85" height="40" as="geometry">
            <mxRectangle width="85" height="40" as="alternateBounds" />
          </mxGeometry>
        </mxCell>
        <mxCell id="NDiBjuCwO_tEZHanY2jY-138" value="" style="shape=partialRectangle;connectable=0;fillColor=none;top=0;left=0;bottom=0;right=0;align=left;spacingLeft=2;overflow=hidden;fontSize=11;" vertex="1" parent="NDiBjuCwO_tEZHanY2jY-135">
          <mxGeometry x="155" width="22" height="40" as="geometry">
            <mxRectangle width="22" height="40" as="alternateBounds" />
          </mxGeometry>
        </mxCell>
        <mxCell id="NDiBjuCwO_tEZHanY2jY-139" style="shape=tableRow;horizontal=0;startSize=0;swimlaneHead=0;swimlaneBody=0;fillColor=none;collapsible=0;dropTarget=0;points=[[0,0.5],[1,0.5]];portConstraint=eastwest;top=0;left=0;right=0;bottom=0;" vertex="1" parent="NDiBjuCwO_tEZHanY2jY-65">
          <mxGeometry y="383" width="177" height="40" as="geometry" />
        </mxCell>
        <mxCell id="NDiBjuCwO_tEZHanY2jY-140" value="" style="shape=partialRectangle;connectable=0;fillColor=none;top=0;left=0;bottom=0;right=0;align=left;spacingLeft=2;overflow=hidden;fontSize=11;" vertex="1" parent="NDiBjuCwO_tEZHanY2jY-139">
          <mxGeometry width="70" height="40" as="geometry">
            <mxRectangle width="70" height="40" as="alternateBounds" />
          </mxGeometry>
        </mxCell>
        <mxCell id="NDiBjuCwO_tEZHanY2jY-141" value="Foto" style="shape=partialRectangle;connectable=0;fillColor=none;top=0;left=0;bottom=0;right=0;align=left;spacingLeft=2;overflow=hidden;fontSize=11;" vertex="1" parent="NDiBjuCwO_tEZHanY2jY-139">
          <mxGeometry x="70" width="85" height="40" as="geometry">
            <mxRectangle width="85" height="40" as="alternateBounds" />
          </mxGeometry>
        </mxCell>
        <mxCell id="NDiBjuCwO_tEZHanY2jY-142" value="" style="shape=partialRectangle;connectable=0;fillColor=none;top=0;left=0;bottom=0;right=0;align=left;spacingLeft=2;overflow=hidden;fontSize=11;" vertex="1" parent="NDiBjuCwO_tEZHanY2jY-139">
          <mxGeometry x="155" width="22" height="40" as="geometry">
            <mxRectangle width="22" height="40" as="alternateBounds" />
          </mxGeometry>
        </mxCell>
        <mxCell id="NDiBjuCwO_tEZHanY2jY-184" style="shape=tableRow;horizontal=0;startSize=0;swimlaneHead=0;swimlaneBody=0;fillColor=none;collapsible=0;dropTarget=0;points=[[0,0.5],[1,0.5]];portConstraint=eastwest;top=0;left=0;right=0;bottom=0;" vertex="1" parent="NDiBjuCwO_tEZHanY2jY-65">
          <mxGeometry y="423" width="177" height="40" as="geometry" />
        </mxCell>
        <mxCell id="NDiBjuCwO_tEZHanY2jY-185" value="string" style="shape=partialRectangle;connectable=0;fillColor=none;top=0;left=0;bottom=0;right=0;align=left;spacingLeft=2;overflow=hidden;fontSize=11;" vertex="1" parent="NDiBjuCwO_tEZHanY2jY-184">
          <mxGeometry width="70" height="40" as="geometry">
            <mxRectangle width="70" height="40" as="alternateBounds" />
          </mxGeometry>
        </mxCell>
        <mxCell id="NDiBjuCwO_tEZHanY2jY-186" value="Referencia" style="shape=partialRectangle;connectable=0;fillColor=none;top=0;left=0;bottom=0;right=0;align=left;spacingLeft=2;overflow=hidden;fontSize=11;" vertex="1" parent="NDiBjuCwO_tEZHanY2jY-184">
          <mxGeometry x="70" width="85" height="40" as="geometry">
            <mxRectangle width="85" height="40" as="alternateBounds" />
          </mxGeometry>
        </mxCell>
        <mxCell id="NDiBjuCwO_tEZHanY2jY-187" value="" style="shape=partialRectangle;connectable=0;fillColor=none;top=0;left=0;bottom=0;right=0;align=left;spacingLeft=2;overflow=hidden;fontSize=11;" vertex="1" parent="NDiBjuCwO_tEZHanY2jY-184">
          <mxGeometry x="155" width="22" height="40" as="geometry">
            <mxRectangle width="22" height="40" as="alternateBounds" />
          </mxGeometry>
        </mxCell>
        <mxCell id="NDiBjuCwO_tEZHanY2jY-143" value="Usurarios" style="shape=table;startSize=25;container=1;collapsible=0;childLayout=tableLayout;fixedRows=1;rowLines=1;fontStyle=1;align=center;resizeLast=1;" vertex="1" parent="1">
          <mxGeometry x="260" y="-430" width="177" height="343" as="geometry" />
        </mxCell>
        <mxCell id="NDiBjuCwO_tEZHanY2jY-144" style="shape=tableRow;horizontal=0;startSize=0;swimlaneHead=0;swimlaneBody=0;fillColor=none;collapsible=0;dropTarget=0;points=[[0,0.5],[1,0.5]];portConstraint=eastwest;top=0;left=0;right=0;bottom=0;" vertex="1" parent="NDiBjuCwO_tEZHanY2jY-143">
          <mxGeometry y="25" width="177" height="47" as="geometry" />
        </mxCell>
        <mxCell id="NDiBjuCwO_tEZHanY2jY-145" value="int" style="shape=partialRectangle;connectable=0;fillColor=none;top=0;left=0;bottom=0;right=0;align=left;spacingLeft=2;overflow=hidden;fontSize=11;" vertex="1" parent="NDiBjuCwO_tEZHanY2jY-144">
          <mxGeometry width="70" height="47" as="geometry">
            <mxRectangle width="70" height="47" as="alternateBounds" />
          </mxGeometry>
        </mxCell>
        <mxCell id="NDiBjuCwO_tEZHanY2jY-146" value="cedula" style="shape=partialRectangle;connectable=0;fillColor=none;top=0;left=0;bottom=0;right=0;align=left;spacingLeft=2;overflow=hidden;fontSize=11;" vertex="1" parent="NDiBjuCwO_tEZHanY2jY-144">
          <mxGeometry x="70" width="85" height="47" as="geometry">
            <mxRectangle width="85" height="47" as="alternateBounds" />
          </mxGeometry>
        </mxCell>
        <mxCell id="NDiBjuCwO_tEZHanY2jY-147" value="PK" style="shape=partialRectangle;connectable=0;fillColor=none;top=0;left=0;bottom=0;right=0;align=left;spacingLeft=2;overflow=hidden;fontSize=11;" vertex="1" parent="NDiBjuCwO_tEZHanY2jY-144">
          <mxGeometry x="155" width="22" height="47" as="geometry">
            <mxRectangle width="22" height="47" as="alternateBounds" />
          </mxGeometry>
        </mxCell>
        <mxCell id="NDiBjuCwO_tEZHanY2jY-148" style="shape=tableRow;horizontal=0;startSize=0;swimlaneHead=0;swimlaneBody=0;fillColor=none;collapsible=0;dropTarget=0;points=[[0,0.5],[1,0.5]];portConstraint=eastwest;top=0;left=0;right=0;bottom=0;" vertex="1" parent="NDiBjuCwO_tEZHanY2jY-143">
          <mxGeometry y="72" width="177" height="47" as="geometry" />
        </mxCell>
        <mxCell id="NDiBjuCwO_tEZHanY2jY-149" value="string" style="shape=partialRectangle;connectable=0;fillColor=none;top=0;left=0;bottom=0;right=0;align=left;spacingLeft=2;overflow=hidden;fontSize=11;" vertex="1" parent="NDiBjuCwO_tEZHanY2jY-148">
          <mxGeometry width="70" height="47" as="geometry">
            <mxRectangle width="70" height="47" as="alternateBounds" />
          </mxGeometry>
        </mxCell>
        <mxCell id="NDiBjuCwO_tEZHanY2jY-150" value="nombres" style="shape=partialRectangle;connectable=0;fillColor=none;top=0;left=0;bottom=0;right=0;align=left;spacingLeft=2;overflow=hidden;fontSize=11;" vertex="1" parent="NDiBjuCwO_tEZHanY2jY-148">
          <mxGeometry x="70" width="85" height="47" as="geometry">
            <mxRectangle width="85" height="47" as="alternateBounds" />
          </mxGeometry>
        </mxCell>
        <mxCell id="NDiBjuCwO_tEZHanY2jY-151" value="" style="shape=partialRectangle;connectable=0;fillColor=none;top=0;left=0;bottom=0;right=0;align=left;spacingLeft=2;overflow=hidden;fontSize=11;" vertex="1" parent="NDiBjuCwO_tEZHanY2jY-148">
          <mxGeometry x="155" width="22" height="47" as="geometry">
            <mxRectangle width="22" height="47" as="alternateBounds" />
          </mxGeometry>
        </mxCell>
        <mxCell id="NDiBjuCwO_tEZHanY2jY-152" style="shape=tableRow;horizontal=0;startSize=0;swimlaneHead=0;swimlaneBody=0;fillColor=none;collapsible=0;dropTarget=0;points=[[0,0.5],[1,0.5]];portConstraint=eastwest;top=0;left=0;right=0;bottom=0;" vertex="1" parent="NDiBjuCwO_tEZHanY2jY-143">
          <mxGeometry y="119" width="177" height="47" as="geometry" />
        </mxCell>
        <mxCell id="NDiBjuCwO_tEZHanY2jY-153" value="string" style="shape=partialRectangle;connectable=0;fillColor=none;top=0;left=0;bottom=0;right=0;align=left;spacingLeft=2;overflow=hidden;fontSize=11;" vertex="1" parent="NDiBjuCwO_tEZHanY2jY-152">
          <mxGeometry width="70" height="47" as="geometry">
            <mxRectangle width="70" height="47" as="alternateBounds" />
          </mxGeometry>
        </mxCell>
        <mxCell id="NDiBjuCwO_tEZHanY2jY-154" value="apellidos" style="shape=partialRectangle;connectable=0;fillColor=none;top=0;left=0;bottom=0;right=0;align=left;spacingLeft=2;overflow=hidden;fontSize=11;" vertex="1" parent="NDiBjuCwO_tEZHanY2jY-152">
          <mxGeometry x="70" width="85" height="47" as="geometry">
            <mxRectangle width="85" height="47" as="alternateBounds" />
          </mxGeometry>
        </mxCell>
        <mxCell id="NDiBjuCwO_tEZHanY2jY-155" value="" style="shape=partialRectangle;connectable=0;fillColor=none;top=0;left=0;bottom=0;right=0;align=left;spacingLeft=2;overflow=hidden;fontSize=11;" vertex="1" parent="NDiBjuCwO_tEZHanY2jY-152">
          <mxGeometry x="155" width="22" height="47" as="geometry">
            <mxRectangle width="22" height="47" as="alternateBounds" />
          </mxGeometry>
        </mxCell>
        <mxCell id="NDiBjuCwO_tEZHanY2jY-156" style="shape=tableRow;horizontal=0;startSize=0;swimlaneHead=0;swimlaneBody=0;fillColor=none;collapsible=0;dropTarget=0;points=[[0,0.5],[1,0.5]];portConstraint=eastwest;top=0;left=0;right=0;bottom=0;" vertex="1" parent="NDiBjuCwO_tEZHanY2jY-143">
          <mxGeometry y="166" width="177" height="47" as="geometry" />
        </mxCell>
        <mxCell id="NDiBjuCwO_tEZHanY2jY-157" value="string" style="shape=partialRectangle;connectable=0;fillColor=none;top=0;left=0;bottom=0;right=0;align=left;spacingLeft=2;overflow=hidden;fontSize=11;" vertex="1" parent="NDiBjuCwO_tEZHanY2jY-156">
          <mxGeometry width="70" height="47" as="geometry">
            <mxRectangle width="70" height="47" as="alternateBounds" />
          </mxGeometry>
        </mxCell>
        <mxCell id="NDiBjuCwO_tEZHanY2jY-158" value="Telefono" style="shape=partialRectangle;connectable=0;fillColor=none;top=0;left=0;bottom=0;right=0;align=left;spacingLeft=2;overflow=hidden;fontSize=11;" vertex="1" parent="NDiBjuCwO_tEZHanY2jY-156">
          <mxGeometry x="70" width="85" height="47" as="geometry">
            <mxRectangle width="85" height="47" as="alternateBounds" />
          </mxGeometry>
        </mxCell>
        <mxCell id="NDiBjuCwO_tEZHanY2jY-159" value="" style="shape=partialRectangle;connectable=0;fillColor=none;top=0;left=0;bottom=0;right=0;align=left;spacingLeft=2;overflow=hidden;fontSize=11;" vertex="1" parent="NDiBjuCwO_tEZHanY2jY-156">
          <mxGeometry x="155" width="22" height="47" as="geometry">
            <mxRectangle width="22" height="47" as="alternateBounds" />
          </mxGeometry>
        </mxCell>
        <mxCell id="NDiBjuCwO_tEZHanY2jY-164" style="shape=tableRow;horizontal=0;startSize=0;swimlaneHead=0;swimlaneBody=0;fillColor=none;collapsible=0;dropTarget=0;points=[[0,0.5],[1,0.5]];portConstraint=eastwest;top=0;left=0;right=0;bottom=0;" vertex="1" parent="NDiBjuCwO_tEZHanY2jY-143">
          <mxGeometry y="213" width="177" height="47" as="geometry" />
        </mxCell>
        <mxCell id="NDiBjuCwO_tEZHanY2jY-165" value="string" style="shape=partialRectangle;connectable=0;fillColor=none;top=0;left=0;bottom=0;right=0;align=left;spacingLeft=2;overflow=hidden;fontSize=11;" vertex="1" parent="NDiBjuCwO_tEZHanY2jY-164">
          <mxGeometry width="70" height="47" as="geometry">
            <mxRectangle width="70" height="47" as="alternateBounds" />
          </mxGeometry>
        </mxCell>
        <mxCell id="NDiBjuCwO_tEZHanY2jY-166" value="Correo" style="shape=partialRectangle;connectable=0;fillColor=none;top=0;left=0;bottom=0;right=0;align=left;spacingLeft=2;overflow=hidden;fontSize=11;" vertex="1" parent="NDiBjuCwO_tEZHanY2jY-164">
          <mxGeometry x="70" width="85" height="47" as="geometry">
            <mxRectangle width="85" height="47" as="alternateBounds" />
          </mxGeometry>
        </mxCell>
        <mxCell id="NDiBjuCwO_tEZHanY2jY-167" value="" style="shape=partialRectangle;connectable=0;fillColor=none;top=0;left=0;bottom=0;right=0;align=left;spacingLeft=2;overflow=hidden;fontSize=11;" vertex="1" parent="NDiBjuCwO_tEZHanY2jY-164">
          <mxGeometry x="155" width="22" height="47" as="geometry">
            <mxRectangle width="22" height="47" as="alternateBounds" />
          </mxGeometry>
        </mxCell>
        <mxCell id="NDiBjuCwO_tEZHanY2jY-168" style="shape=tableRow;horizontal=0;startSize=0;swimlaneHead=0;swimlaneBody=0;fillColor=none;collapsible=0;dropTarget=0;points=[[0,0.5],[1,0.5]];portConstraint=eastwest;top=0;left=0;right=0;bottom=0;" vertex="1" parent="NDiBjuCwO_tEZHanY2jY-143">
          <mxGeometry y="260" width="177" height="43" as="geometry" />
        </mxCell>
        <mxCell id="NDiBjuCwO_tEZHanY2jY-169" value="string" style="shape=partialRectangle;connectable=0;fillColor=none;top=0;left=0;bottom=0;right=0;align=left;spacingLeft=2;overflow=hidden;fontSize=11;" vertex="1" parent="NDiBjuCwO_tEZHanY2jY-168">
          <mxGeometry width="70" height="43" as="geometry">
            <mxRectangle width="70" height="43" as="alternateBounds" />
          </mxGeometry>
        </mxCell>
        <mxCell id="NDiBjuCwO_tEZHanY2jY-170" value="ContraseÃ±a" style="shape=partialRectangle;connectable=0;fillColor=none;top=0;left=0;bottom=0;right=0;align=left;spacingLeft=2;overflow=hidden;fontSize=11;" vertex="1" parent="NDiBjuCwO_tEZHanY2jY-168">
          <mxGeometry x="70" width="85" height="43" as="geometry">
            <mxRectangle width="85" height="43" as="alternateBounds" />
          </mxGeometry>
        </mxCell>
        <mxCell id="NDiBjuCwO_tEZHanY2jY-171" value="" style="shape=partialRectangle;connectable=0;fillColor=none;top=0;left=0;bottom=0;right=0;align=left;spacingLeft=2;overflow=hidden;fontSize=11;" vertex="1" parent="NDiBjuCwO_tEZHanY2jY-168">
          <mxGeometry x="155" width="22" height="43" as="geometry">
            <mxRectangle width="22" height="43" as="alternateBounds" />
          </mxGeometry>
        </mxCell>
        <mxCell id="NDiBjuCwO_tEZHanY2jY-180" style="shape=tableRow;horizontal=0;startSize=0;swimlaneHead=0;swimlaneBody=0;fillColor=none;collapsible=0;dropTarget=0;points=[[0,0.5],[1,0.5]];portConstraint=eastwest;top=0;left=0;right=0;bottom=0;" vertex="1" parent="NDiBjuCwO_tEZHanY2jY-143">
          <mxGeometry y="303" width="177" height="40" as="geometry" />
        </mxCell>
        <mxCell id="NDiBjuCwO_tEZHanY2jY-181" value="Rol" style="shape=partialRectangle;connectable=0;fillColor=none;top=0;left=0;bottom=0;right=0;align=left;spacingLeft=2;overflow=hidden;fontSize=11;" vertex="1" parent="NDiBjuCwO_tEZHanY2jY-180">
          <mxGeometry width="70" height="40" as="geometry">
            <mxRectangle width="70" height="40" as="alternateBounds" />
          </mxGeometry>
        </mxCell>
        <mxCell id="NDiBjuCwO_tEZHanY2jY-182" value="rol" style="shape=partialRectangle;connectable=0;fillColor=none;top=0;left=0;bottom=0;right=0;align=left;spacingLeft=2;overflow=hidden;fontSize=11;" vertex="1" parent="NDiBjuCwO_tEZHanY2jY-180">
          <mxGeometry x="70" width="85" height="40" as="geometry">
            <mxRectangle width="85" height="40" as="alternateBounds" />
          </mxGeometry>
        </mxCell>
        <mxCell id="NDiBjuCwO_tEZHanY2jY-183" value="" style="shape=partialRectangle;connectable=0;fillColor=none;top=0;left=0;bottom=0;right=0;align=left;spacingLeft=2;overflow=hidden;fontSize=11;" vertex="1" parent="NDiBjuCwO_tEZHanY2jY-180">
          <mxGeometry x="155" width="22" height="40" as="geometry">
            <mxRectangle width="22" height="40" as="alternateBounds" />
          </mxGeometry>
        </mxCell>
      </root>
    </mxGraphModel>
  </diagram>
</mxfile>
